<?xml version="1.0" encoding="UTF-8" standalone="no"?>
<!DOCTYPE svg PUBLIC "-//W3C//DTD SVG 1.1//EN" "http://www.w3.org/Graphics/SVG/1.1/DTD/svg11.dtd">
<svg width="100%" height="100%" viewBox="0 0 1400 1000" version="1.1" xmlns="http://www.w3.org/2000/svg" xmlns:xlink="http://www.w3.org/1999/xlink" xml:space="preserve" xmlnsserif="http://www.serif.com/" style="fill-rule:evenodd;clip-rule:evenodd;stroke-linejoin:round;stroke-miterlimit:2;">
    <g>
        <g>
            <path d="M1351.9,707C1354.6,659.7 1347.7,625.4 1330.7,602.1C1315.1,580.7 1294.5,573.1 1279.5,567.6C1274.9,565.9 1266.4,562.8 1264.9,560.9C1264.7,560.4 1263.9,556.3 1268,544.8C1281.3,507.3 1282.5,484 1271.9,466.9C1257.7,443.8 1227.7,440 1186.1,434.6C1179.9,433.8 1173.4,433 1166.6,432C1160.1,431.1 1153.8,430.6 1148,430.6C1112.3,430.6 1095.7,447.8 1083.5,460.3C1074,470.1 1068.8,475.5 1055.7,475.5C1049.8,475.5 1042.6,474.4 1034.4,472.1C1027.2,470.2 1020.4,469.2 1014,469.2C992.7,469.2 975.9,479.5 964.2,500C955.6,515 950.7,533.8 945.9,552C939.1,578 932.1,604.9 916.6,610.8C907.7,614.2 903,614.9 900.7,614.9L900.3,614.9C897.9,611.2 895.3,598.4 893.4,589C890.1,572.7 886.1,552.3 877,529.1C870,511.3 853.7,490.2 815.7,490.2C772.3,490.2 714.5,519.1 668,542.3C655.2,548.7 643.1,554.8 632.7,559.5C586.5,580.5 578.3,620.3 570.5,658.9C565.1,685.1 559.6,712.2 541.6,735.2C523.6,758.8 515.3,798.4 509.2,827.3C506.2,841.6 503.8,852.9 501.2,857.6C496.2,866.5 469,868.5 457.5,868.9C432.5,869.8 414.2,871.6 394.3,877.9C362.1,888.1 354.8,915.5 350,933.5C349.5,935.5 349,937.3 348.5,939L348,940.7C342.5,959.9 337.1,978.3 328.1,999.9L329.7,999.9C338.6,978.5 343.9,960.1 349.4,941.1L349.9,939.4C350.4,937.7 350.9,935.8 351.4,933.8C356.1,916 363.3,889.2 394.7,879.2C414.4,872.9 432.7,871.2 457.5,870.2C472.1,869.7 497.3,867.4 502.5,858.1C505.2,853.2 507.6,841.8 510.7,827.4C516.7,798.6 525,759.2 542.8,735.9C561,712.6 566.5,685.3 571.9,658.9C579.7,620.7 587.8,581.3 633.3,560.6C643.7,555.9 655.8,549.8 668.7,543.4C715,520.3 772.6,491.5 815.7,491.5C852.9,491.5 868.8,512.2 875.6,529.5C884.7,552.6 888.7,572.8 892,589.1C894.1,599.4 896.6,612.3 899.3,615.8L899.5,616.1L900.7,616.1C903.2,616.1 908.1,615.4 917.2,611.9C933.3,605.7 940.5,578.4 947.4,552.1C952.1,534 957,515.3 965.5,500.5C976.9,480.6 993.2,470.5 1014,470.5C1020.3,470.5 1027,471.5 1034.1,473.4C1042.5,475.7 1049.8,476.8 1055.8,476.8C1069.5,476.8 1074.9,471.2 1084.7,461.2C1096.6,448.9 1113,431.9 1148.1,431.9C1153.8,431.9 1160,432.4 1166.5,433.2C1173.3,434.1 1179.8,435 1186,435.8C1227.2,441.1 1256.9,445 1270.7,467.4C1281,484.1 1279.7,507 1266.6,544C1261.7,557.7 1263.6,561.4 1263.7,561.4C1265.2,563.4 1271.8,566 1279.1,568.7C1293.9,574.2 1314.3,581.6 1329.6,602.7C1346.4,625.7 1353.2,659.7 1350.5,706.6C1348.5,741.7 1357.9,767.1 1380.3,786.7C1386.2,791.8 1392.9,796.5 1400,800.8L1400,799.1C1393.2,795 1386.9,790.6 1381.2,785.7C1359.2,766.7 1349.9,741.6 1351.9,707Z" style="fill-opacity:0.2;fill-rule:nonzero;"/>
            <path d="M1335.7,706.1C1338.2,662.8 1332.3,631.9 1317.6,611.8C1304.9,594.3 1287.7,588 1273.9,583C1253.7,575.6 1241.5,571.1 1252.7,539.6C1264.2,507.3 1265.8,488.1 1258.1,475.6C1248,459.2 1222.6,455.9 1184.1,450.9C1177.8,450.1 1171.4,449.3 1164.5,448.3C1123.6,442.6 1108.6,458.2 1095.3,471.8C1081.4,486.2 1069.3,498.6 1030.2,488C1016,484.1 1004.5,485 994.9,490.5C976.1,501.4 969.1,528 961.7,556.2C953.9,586.1 945.7,617.1 922.6,626C908.1,631.6 898.5,632.7 892.5,629.3C884.2,624.7 881.5,611.1 877.7,592.2C874.6,576.5 870.6,556.9 862.1,535.1C857.3,522.9 849.1,514.5 837.7,510.1C798.9,495.2 730.5,529.4 675.5,556.9C662.5,563.4 650.3,569.5 639.6,574.3C600.9,591.9 594,626 586.6,662.1C580.8,690.3 574.9,719.5 554.3,745.7C553.2,746.9 543,758.1 534.3,776.4C519.3,808.2 521.4,835.7 525.8,853.2C527.4,859.4 526.7,864.3 523.9,868C515.6,879.1 488.9,880.1 460.6,881.1C415.6,882.8 364.5,884.7 363.7,927.5C363.3,946.3 356.8,972.2 345.8,1000L351.2,1000C361.8,972.9 368.3,947.2 368.7,927.6C369,910.5 378.3,899.6 397.9,893.4C415.6,887.8 438.6,886.9 460.8,886.1C491.6,885 518.1,884 527.9,871C531.6,866 532.5,859.6 530.6,852C516,794.1 557.4,749.5 557.9,749L558,748.8C579.4,721.7 585.8,690.5 591.4,663.1C598.8,626.7 605.3,595.3 641.6,578.8C652.3,573.9 664.6,567.8 677.6,561.3C731.7,534.3 799.1,500.6 835.8,514.7C845.9,518.6 853,525.9 857.3,536.9C865.7,558.3 869.6,577.7 872.7,593.2C876.7,613.4 879.7,628 890,633.7C897.5,637.8 908.1,636.9 924.4,630.7C950,620.9 958.4,588.6 966.6,557.5C973.7,530.3 980.4,504.7 997.4,494.8C1005.8,490 1016.1,489.3 1028.9,492.8C1070.9,504.2 1085.1,489.5 1098.9,475.3C1111.9,461.8 1125.4,447.9 1163.8,453.2C1170.7,454.2 1177.2,455 1183.5,455.8C1220.6,460.6 1245.1,463.8 1253.9,478.2C1260.6,489.1 1258.8,507.5 1248,537.9C1235.2,574.1 1252.3,580.4 1272.2,587.7C1299.2,597.6 1336.2,611.2 1330.7,705.9C1328.3,747 1340.3,778.5 1367.3,802C1377,810.4 1388,817.5 1400,823.8L1400,818C1389.2,812.2 1379.3,805.7 1370.6,798.1C1344.5,775.3 1333.4,746.1 1335.7,706.1Z" style="fill-opacity:0.2;fill-rule:nonzero;"/>
            <path d="M434.8,69.7C424.4,77.4 412.7,86.1 398.8,94.2C385.7,101.8 376.8,106.4 372.3,107.9C370.6,105.5 368.1,101.4 366.1,98C361.3,90 354.7,79 344.7,66C330,47 310.6,37 288.6,37C266.6,37 247.6,47 235.5,55.4C221.2,65.4 208.7,78.5 201.3,91.5C200.1,93.7 198.9,95.8 197.7,97.9L197.6,98C183.2,123.6 172.8,142 138.8,155.3C121,162.2 110.6,175.7 108.7,194.3C107.4,207.5 110.6,221.2 113.5,233.3C115,239.5 117.4,249.9 117.1,254.2C111.5,258.5 100.3,267.3 99.1,282.1C98.4,291.9 101.8,300.7 107.6,315.3C111.4,324.9 116.6,338.2 122.5,356.5C126.4,368.5 127.2,377.7 124.7,381.9C121.2,387.9 105.7,390.8 92,393.5C80.9,395.6 69.3,397.9 58.3,402.1C47.9,406.1 34.6,415.2 30.3,435.2C27.8,446.6 28.8,459.1 29.7,471.2C31.1,489.3 32.4,506.5 23.1,517.8C7.6,536.6 3.8,561.7 11.9,592.2C18,615.4 29,633.5 31.1,636.9C68.5,700 123.8,737.7 178.8,737.7C219.1,737.7 255.6,717.3 281.6,680.2C292.5,664.7 307.1,657.7 329.1,657.7C348.6,657.7 371,663 394.7,668.6C420.5,674.7 447.2,681 473.1,681C499.3,681 520.9,674.5 539,661.1C553.1,650.7 560.4,638.3 560.8,624.2C561.5,596.4 534.4,574.5 508.3,553.3C499.4,546 490.9,539.2 484.6,532.9C480.2,528.6 478.1,525.6 477,523.9C480.9,521.1 493,514.7 528.8,508.8C573.1,501.5 607.4,491.8 630.6,479.7C652.7,468.3 666.1,454.2 670.7,437.7C677.5,413 661.7,391.5 651.2,382.7L650.2,381.9L649,381.2C624.3,365.8 611.3,344.3 608.2,313.4C605.3,284.3 611.6,251.4 617.2,222.4C619.3,211.5 621.3,201.2 622.8,191.3C626.4,167.3 622.1,147.6 609.8,131.1C599.5,117.3 585,107.7 570.9,98.5C557.8,89.9 544.3,81 534,68.6C519.9,51.6 505.4,43.3 489.6,43.3C485.9,43.3 482.4,43.7 478.9,44.6C468.8,49 457.7,55 446.4,61.3C442.5,64 438.7,66.8 434.8,69.7ZM532.8,69.7C543.2,82.3 556.9,91.3 570,99.9C583.9,109 598.3,118.5 608.5,132.1C620.6,148.3 624.8,167.6 621.2,191.2C619.7,201 617.7,211.3 615.7,222.2C610.1,251.3 603.7,284.4 606.7,313.6C609.9,345 623.1,366.9 648.2,382.6L649.3,383.3L650.3,384.1C660.5,392.7 675.9,413.6 669.3,437.6C664.9,453.6 651.7,467.4 630,478.6C606.9,490.5 572.8,500.3 528.7,507.5C490.8,513.7 479,520.6 475.7,523.3L475.2,523.7L475.5,524.2C476.5,526 478.7,529.2 483.7,534.1C490.1,540.5 498.6,547.3 507.5,554.6C533.4,575.6 560.1,597.3 559.5,624.3C559.2,637.9 552.1,649.9 538.3,660C520.4,673.2 499.2,679.6 473.3,679.6C447.6,679.6 421,673.3 395.2,667.2C371.4,661.6 349,656.2 329.3,656.2C306.8,656.2 291.8,663.3 280.6,679.3C254.9,716 218.8,736.1 179,736.1C124.5,736.1 69.7,698.7 32.5,636C30.4,632.6 19.5,614.6 13.4,591.7C5.5,561.7 9.1,537.1 24.3,518.6C34,506.8 32.7,489.4 31.2,470.9C30.3,458.9 29.3,446.6 31.8,435.3C36,415.9 48.9,407.2 58.9,403.3C69.8,399.1 81.2,396.9 92.3,394.7C106.3,392 122.1,389 126,382.4C128.7,377.9 127.9,368.2 123.9,355.8C118,337.5 112.8,324.2 109,314.5C103.3,300.1 99.9,291.4 100.6,281.9C101.7,267.6 112.9,259 118.2,254.9L118.4,254.7L118.4,254.4C118.9,250.1 116.5,239.6 114.8,232.7C112,220.7 108.8,207.1 110.1,194.2C111.9,176.2 122,163.2 139.2,156.4C173.7,142.9 184.2,124.3 198.8,98.5L198.9,98.4C200.1,96.3 201.3,94.1 202.5,92C209.8,79.2 222.1,66.3 236.3,56.4C248.2,48.1 266.9,38.3 288.5,38.3C309.9,38.3 328.9,48.1 343.4,66.7C353.4,79.6 359.9,90.5 364.7,98.5C366.9,102.3 369.5,106.5 371.3,108.9L371.6,109.3L372.1,109.2C376.6,107.9 385.8,103.2 399.4,95.2C413.4,87 425.2,78.3 435.6,70.6C454.4,56.7 470.7,44.7 489.4,44.7C504.9,44.9 519,53 532.8,69.7Z" style="fill-opacity:0.2;fill-rule:nonzero;"/>
            <path d="M407,108.2C388.3,119.1 376.1,125.3 368.9,124.5C362.6,123.8 358.9,117.6 352.1,106.3C347.3,98.2 341.3,88.1 331.8,76C319.3,59.9 303,52.1 284.6,53.4C256.7,55.4 227.5,78.4 215.4,99.5C214.2,101.7 212.9,103.9 211.7,106C196.8,132.3 184,155.1 144.6,170.4C117.7,180.9 124,207.9 129.2,229.6C132.9,245.2 136.3,259.9 128.1,266.1C110.7,279.3 112.8,284.5 122.6,309.3C126.5,319.2 131.8,332.7 137.9,351.4C143.5,368.8 143.7,381.4 138.6,390.1C131.3,402.4 113.7,405.8 95,409.4C84.6,411.4 73.8,413.5 64.2,417.2C42.5,425.6 44.2,447.1 45.9,469.9C47.5,490.5 49.1,511.7 35.6,528.1C22.9,543.5 20.6,565.8 28.8,592.6C34.8,612.3 44.3,627.4 44.9,628.4C78.3,684.8 126.8,719.5 174.7,721.4C176,721.5 177.4,721.5 178.7,721.5C213.6,721.5 245.3,703.7 268.3,670.9C297.7,629 346.6,640.6 398.4,652.9C444.7,663.9 492.6,675.2 529.3,648.2C539.1,640.9 544.2,632.8 544.5,624.1C545,604.3 521.1,584.9 498,566.2C477.8,549.8 456.9,532.8 460.3,520.1C463.3,508.8 485.5,499.7 526.2,493C604.3,480.2 647.7,460.2 655,433.7C660.8,412.7 641.5,396.1 640.7,395.4L640.4,395.2C575.2,354.6 589.6,279.7 601.2,219.5C603.3,208.8 605.2,198.6 606.6,189.1C613.1,145.9 588.2,129.6 561.9,112.3C547.8,103 533.2,93.5 521.4,79.1C494.1,46 474.4,60.6 444.5,82.7C433.8,90.6 421.6,99.6 407,108.2ZM517.5,82.3C529.8,97.2 544.7,107 559.1,116.5C585.1,133.6 607.6,148.4 601.6,188.4C600.2,197.8 598.2,207.9 596.2,218.6C584.3,280.3 569.6,357 637.5,399.4C639.1,400.8 654.8,415.3 650,432.4C645.3,449.2 619.9,472.6 525.2,488.1C481.1,495.3 458.9,505.1 455.3,518.8C451.1,534.7 472.3,551.9 494.7,570.1C516.9,588.1 539.8,606.7 539.4,624C539.2,631.2 534.9,637.9 526.3,644.2C491.5,669.8 444.7,658.8 399.5,648C372.8,641.7 347.6,635.7 324.4,636.6C298,637.6 278.3,647.9 264.2,668C241.4,700.5 209.7,717.7 174.9,716.4C128.7,714.6 81.7,680.8 49.1,625.8L49.1,625.7C48.7,625.1 11.2,565.4 39.4,531.2C54.2,513.3 52.4,490 50.8,469.5C49.1,447.7 47.7,428.9 65.9,421.8C75.1,418.2 85.7,416.2 95.9,414.2C115.7,410.4 134.5,406.8 142.9,392.6C148.8,382.7 148.7,368.7 142.6,349.9C136.5,331 131.1,317.4 127.2,307.5C117.6,283 116.8,281 131.1,270.1C141.9,261.9 138,245.7 134,228.5C128.8,206.7 123.5,184.1 146.4,175.1C187.5,159.1 200.7,135.6 216,108.5C217.2,106.4 218.4,104.2 219.7,102C229.3,85.1 255.9,60.4 284.9,58.4C286.1,58.3 287.4,58.3 288.6,58.3C303.9,58.3 317.1,65.3 327.8,79.1C337.1,91 343,100.9 347.8,108.9C355.1,121.1 359.5,128.5 368.3,129.5C377,130.4 389,124.5 409.5,112.6C424.4,103.9 436.6,94.8 447.4,86.8C478,64.2 493.3,52.9 517.5,82.3Z" style="fill-opacity:0.2;fill-rule:nonzero;"/>
            <path d="M322.3,114.8C309.1,97.8 293.8,89.3 278.1,90.4C265.3,91.3 247.3,99.8 235.3,120.8C221.1,145.7 207.1,166 167.3,181.6C144.4,190.6 150.9,214.4 156.6,235.4C160.8,250.7 164.8,265.2 156.6,271.4L156,272C136.5,286.9 136.5,286.9 156.2,344L156.7,345.5C166,372.5 163.3,393 148.5,408.3C135.6,421.5 116,428.6 98.7,434.8C94.6,436.3 90.8,437.6 87.2,439C69.7,445.8 70.8,461.6 72.1,479.8C73.4,498.4 74.8,519.5 58,537.8C39.4,558.1 50.4,597.3 60.4,613.9C89.6,662.1 123.6,688.1 161.2,691C163.5,691.2 165.7,691.3 168,691.3C202,691.3 237.6,672 266.6,637.5C290.6,609 342.7,622.1 393,634.7C447.3,648.3 498.6,661.2 512,622.1C515.1,613 497.5,598 475.2,579.1C447.4,555.5 412.8,526 419.2,504.4C423.4,490.1 445.5,480.2 484.8,474.9C531.2,468.7 566.3,460.5 589.1,450.5C607.3,442.5 617.7,433.4 620.2,423.4C623.9,408.4 608.4,396.6 607.1,395.7C546.5,324.9 560.3,281.3 573.6,239.1C577.5,226.7 581.6,213.9 583.6,200.7C589.3,162.7 568.3,148.9 544.1,132.9C531.3,124.5 518.2,115.8 507.4,102.7C484.8,75.2 472.4,85.3 449.7,103.6C440.4,111.1 428.8,120.5 414,129.2C363.8,158.7 355.2,157.4 322.3,114.8ZM414.8,130.5C429.7,121.7 441.4,112.3 450.7,104.7C473.3,86.4 484.6,77.2 506.3,103.6C517.2,116.9 530.5,125.6 543.3,134.1C567.1,149.8 587.7,163.4 582.1,200.4C580.1,213.5 576.1,226.3 572.2,238.6C558.7,281.2 544.8,325.2 606,396.7L606.1,396.8C606.3,396.9 622.3,408.5 618.7,423C611.8,450.8 542,465.8 484.6,473.4C444.1,478.8 422.2,488.8 417.8,503.9C411.2,526.4 444.7,555 474.3,580.1C494.4,597.2 513.4,613.4 510.7,621.5C497.8,659.3 447.1,646.6 393.5,633.2C342.7,620.5 290.1,607.3 265.6,636.5C235,672.9 197,692.3 161.5,689.5C124.3,686.6 90.8,660.9 61.8,613.1C52.3,597.4 41.4,558.2 59.2,538.8C76.5,520 75,498.6 73.7,479.6C72.4,461.2 71.4,446.7 87.9,440.3C91.5,438.9 95.3,437.5 99.3,436.1C133.3,423.9 179.8,407.2 158.3,344.9L157.8,343.4C138.4,287.4 138.4,287.4 157.1,273.1L157.8,272.6C166.7,265.8 162.7,250.8 158.3,235C152.5,213.6 146.4,191.5 168.1,183C208.4,167.2 222.6,146.7 236.9,121.5C248.6,101 266,92.7 278.5,91.9C293.7,90.8 308.5,99 321.4,115.7C354.4,158.8 364,160.3 414.8,130.5Z" style="fill-opacity:0.2;fill-rule:nonzero;"/>
            <path d="M358.3,173.9C345.3,172.4 333.9,163.6 317.5,142.5C303.2,124 287.9,114.8 273.2,115.8C260.9,116.7 249.5,125 241.7,138.6C238.9,143.6 236.4,148.5 234.1,153.3C224.3,173 215.9,190 186.9,201.3C165.4,209.7 170.9,232.3 175.8,252.2C179.3,266.6 182.6,280.3 175.1,286.1C173.4,287.4 171.9,288.5 170.5,289.5C157.9,298.7 158.1,299.4 170.1,333.4C171.7,338 173.5,343.1 175.5,349C185.1,376.9 182.1,400.9 166.4,420.2C155.7,433.4 139.1,444.4 116.9,453.1C100.4,459.6 100.1,472.5 99.8,487.5C99.5,502.6 99.1,519.7 83.6,536.6C66.3,555.5 70.2,588.1 79.5,603.5C106.7,648.4 139,672.3 172.9,672.5L173.5,672.5C205.9,672.5 238.9,650.7 262,614C280.5,584.6 342.6,600.8 397.5,615.2C442.3,626.9 481,637 486.6,619.3C488.3,614.1 476.1,603.2 454.4,584.5C421.5,556.1 376.5,517.1 384.5,490.3C388.8,476 408.2,466.4 442.3,461.9C556.2,446.7 587,425.5 592.9,410.3C596,402.2 591.6,396.9 591.4,396.6C527.3,328.5 541.9,288.8 556.1,250.4C560.5,238.4 565,226.1 567,213.2C572.2,178.4 557,169.3 537.8,157.7C527.3,151.4 515.4,144.2 505,131.6C482.7,104.5 467.2,115.7 441.6,134.3C432.8,140.7 422.9,147.9 411,154.9C389.1,167.8 372.6,175.5 358.3,173.9ZM411.9,156.1C423.9,149.1 433.8,141.8 442.6,135.4C468.4,116.7 482.5,106.3 503.9,132.4C514.5,145.3 526.5,152.5 537.1,158.8C555.8,170 570.6,178.9 565.6,212.7C563.7,225.4 559.2,237.7 554.8,249.6C540.5,288.4 525.8,328.6 590.4,397.3C590.4,397.3 594.4,402.2 591.6,409.5C580.7,437.6 493.3,453.3 442.2,460.1C407,464.8 387.7,474.4 383.2,489.6C374.9,517.4 420.4,556.7 453.5,585.4C470.6,600.2 486.7,614.1 485.2,618.6C480,634.9 442,625 397.9,613.5C342.5,599 279.8,582.6 260.8,613C238,649.3 205.5,670.8 173.6,670.8L173,670.8C139.7,670.5 107.8,646.9 80.9,602.5C71.8,587.5 68,555.7 84.8,537.4C100.7,520.1 101,501.9 101.3,487.3C101.6,472.2 101.9,460.3 117.5,454.2C139.9,445.5 156.7,434.2 167.6,420.9C183.6,401.2 186.8,376.7 176.9,348.3C174.9,342.4 173.1,337.3 171.4,332.7C159.6,299.1 159.6,299.1 171.3,290.6C172.7,289.6 174.2,288.5 175.9,287.2C184.2,280.8 180.8,266.7 177.2,251.8C172.3,231.5 167.2,210.6 187.4,202.7C216.8,191.2 225.8,173.1 235.3,154C237.7,149.3 240.1,144.3 242.9,139.4C250.4,126.2 261.4,118.2 273.2,117.4C273.9,117.3 274.6,117.3 275.3,117.3C288.8,117.3 302.9,126.3 316.2,143.5C348.5,184.8 365.6,183.4 411.9,156.1Z" style="fill-opacity:0.2;fill-rule:nonzero;"/>
            <path d="M988.9,113.2C977.5,156.3 966.7,197 977.6,225.3C991.4,261 978.4,297.4 966.9,329.5C956.8,357.7 948.1,382.1 960.8,399C974.3,416.9 992.7,412.5 1014.1,407.3C1035.7,402.1 1060.3,396.1 1086.7,411.7C1092.5,415.1 1098.2,416.6 1103.8,416.6C1121.5,416.6 1138.4,401.9 1156.1,386.5C1172,372.7 1188.5,358.4 1207.2,352.4C1228.3,345.7 1249.1,351 1270.8,368.7C1306.7,397.9 1338.3,412.7 1364.9,412.7C1368.9,412.7 1372.7,412.4 1376.5,411.7C1385,410.2 1392.8,407.1 1399.9,402.4L1399.9,396.3C1392.6,401.8 1384.4,405.3 1375.6,406.8C1348.2,411.6 1314,397.5 1273.9,364.8C1250.7,345.9 1228.4,340.3 1205.6,347.6C1185.9,353.9 1169,368.5 1152.7,382.7C1129.8,402.6 1110.1,419.7 1089.1,407.4C1060.9,390.8 1034.2,397.3 1012.8,402.5C992.4,407.5 976.3,411.4 964.7,396C953.6,381.3 961.9,358.1 971.5,331.2C983.3,298.3 996.6,261 982.1,223.5C971.8,196.8 982.4,156.8 993.6,114.5C1004.5,73.4 1015.6,31.4 1007.3,-0L1001.9,-0C1010.9,30.4 999.8,72.3 988.9,113.2Z" style="fill-opacity:0.2;fill-rule:nonzero;"/>
            <path d="M604.6,78.2C612.8,92.6 625.4,102.2 641.9,106.6C666.2,113 678.8,128.7 681.4,155.9C683.7,180.4 677.6,210.9 671.7,240.5C668.4,257.1 664.9,274.3 663.1,289.9C659.3,323 664.5,346.7 678.9,362.4C694.3,379.2 720.7,386.8 759.6,385.7C776.7,385.2 788.5,390.1 795.6,400.7C802,410.1 804,422.6 806,434.6C808.8,452 811.5,468.3 828,469.3L829.5,469.3C857.7,469.3 886.7,424.6 903.1,385.7C923,338.5 934,278.3 911.2,257.4C871.8,221.3 854.8,198.5 852.5,178.6C850.2,158.9 862.1,140.7 881.6,112.7C900.8,85.1 887,62.3 873.7,40.3C865.7,26.8 857.9,13.9 857,0L851.9,0C852.8,15.2 861.2,29.1 869.5,42.7C882.6,64.3 894.9,84.7 877.6,109.7C857.4,138.7 845.2,157.5 847.7,179C850.2,200.5 867.1,223.5 908,260.9C917.2,269.3 920.8,286.4 918.5,310.3C916.4,332.2 909.3,358.3 898.6,383.6C881.3,424.7 852.8,465.5 828.4,464.1C816.5,463.4 814.1,452.1 811.1,433.6C807.2,409.4 802.2,379.3 759.6,380.5C722.2,381.6 697.1,374.5 682.7,358.8C669.3,344.2 664.6,321.8 668.2,290.3C670,275 673.2,258.6 676.7,241.3C682.7,211.4 688.9,180.5 686.5,155.3C683.7,126.1 669.6,108.5 643.3,101.6C628.1,97.6 616.6,88.8 609,75.6C596.2,53.2 597,22.1 599.8,-0.1L594.7,-0.1C594.3,2.9 594,6 593.7,9.3C591.3,38.1 595,61.3 604.6,78.2Z" style="fill-opacity:0.2;fill-rule:nonzero;"/>
            <path d="M133.2,784.3C155.6,791.7 176.5,790.2 197.2,779.7C229.4,763.3 253.3,749.5 270.7,739.4C302.2,721.1 318,712 334.9,717.1C349.7,721.6 357.7,735.6 366.5,753.5C371.7,763.9 378.4,768.4 389.9,768.9C402.6,769.5 418.4,764.9 432.4,760.9C444.5,757.4 455.9,754.2 466.1,753.6C488.4,752.4 497.1,765.2 500.3,772.9C504.8,783.7 509.8,799.9 501.8,815.3C490.5,837.1 460.5,845.8 394.9,860.5C359.3,868.5 341.1,913.1 328,955.7C325.5,963.7 323.6,971.9 321.8,979.9C320.2,986.8 318.6,993.6 316.7,1000.1L318.3,1000.1C320.1,993.7 321.7,987 323.3,980.2C325.1,972.3 327,964.1 329.5,956.1C342.5,913.9 360.4,869.7 395.3,861.9C461.4,847.1 491.6,838.3 503.2,815.9C511.5,800 506.3,783.3 501.7,772.2C498.4,764.1 489.3,750.8 466,752C455.6,752.5 444.1,755.8 432,759.3C418.1,763.3 402.4,767.8 390,767.3C379.1,766.8 372.7,762.6 367.8,752.7C358.8,734.5 350.7,720.1 335.3,715.5C317.8,710.2 301.8,719.5 269.9,738C252.5,748.1 228.7,761.9 196.5,778.3C176.2,788.6 155.6,790.1 133.6,782.9C71.7,762.3 19.5,680.1 0,645.8L0,648.8C20.6,684.5 72.1,764.1 133.2,784.3Z" style="fill-opacity:0.2;fill-rule:nonzero;"/>
            <path d="M126.9,803C154.2,812 180.8,810.1 206.1,797.2C238.8,780.6 263,766.6 280.6,756.3C307.1,740.9 320.4,733.2 329.1,735.8C335.7,737.8 340.9,746.2 348.7,762.1C367.4,799.9 406.4,788.7 437.8,779.7C459.8,773.4 477.1,768.4 482,780.3C486.8,791.9 487.5,799.8 484.2,806.1C476.5,821 443.6,829.3 390.5,841.2C344.4,851.5 329,901.5 314.2,949.9C308.8,967.6 303.4,984.9 296.8,1000.1L302.2,1000.1C308.7,984.9 313.9,968 319,951.4C333.4,904.4 348.4,855.8 391.7,846.1C451.3,832.7 480.3,824.7 488.8,808.4C492.8,800.8 492.1,791.5 486.7,778.4C480.1,762.4 459.9,768.2 436.5,774.9C405.4,783.8 370.2,794 353.3,759.9C344.6,742.4 339,733.6 330.6,731.1C319.8,727.9 306.8,735.4 278.1,752.1C260.5,762.3 236.5,776.3 203.9,792.8C179.8,805 154.4,806.9 128.5,798.3C84.3,783.6 45.5,740.9 20.8,707.6C12.9,697 6,686.6 0,677.3L0,686.5C5,694.1 10.6,702.2 16.7,710.5C41.9,744.4 81.4,787.9 126.9,803Z" style="fill-opacity:0.2;fill-rule:nonzero;"/>
            <path d="M75.3,252.5C94.1,249.9 104.3,245.6 108.4,238.4C113.3,229.9 108.9,218.9 103.3,205.1C99.4,195.4 94.9,184.4 92.4,171.6C83.6,126.6 103.2,114 161.1,84.3C207,60.7 227.7,30 237,8.4C238.2,5.5 239.3,2.8 240.2,0.1L234.9,0.1C234.2,2.1 233.3,4.3 232.4,6.4C216.2,44.2 183.5,67.2 158.8,79.9C131.3,94 109.4,105.9 97.5,119.6C85.9,133 82.9,148.9 87.5,172.6C90.1,185.9 94.7,197.1 98.7,207.1C103.8,219.7 107.8,229.6 104.1,236C100.8,241.6 91.5,245.3 74.6,247.7C67.5,248.7 60.4,249.5 53.6,250.3C34.1,252.6 15.5,254.9 0,259.7L0,264.8C15.2,259.9 33.8,257.7 54.2,255.2C61.1,254.3 68.2,253.5 75.3,252.5Z" style="fill-opacity:0.2;fill-rule:nonzero;"/>
            <path d="M1329.5,939.3C1326.7,908.1 1322.5,892.5 1314.6,883.7C1306.5,874.8 1294.9,873.8 1278.9,872.3C1266.9,871.2 1251.9,869.9 1233.1,865C1206.1,858 1191.2,844.5 1186.1,822.6C1181.4,802.2 1185.2,776.9 1189.5,747.6C1190.6,739.9 1191.8,731.9 1192.9,723.8C1194.1,715 1195.4,706.3 1196.7,698C1201.3,668.7 1205.3,643.4 1199.1,622.2C1192.2,598.6 1173.2,583.7 1139.4,575.5C1123,571.5 1109.9,575.6 1099.4,588.1C1090.3,598.9 1084,614.5 1077.5,631C1063.9,665.1 1049.8,700.4 1008.2,695.5C989.8,693.3 983.7,710.6 977.2,728.8C969.1,751.5 960,777.2 926.5,778C896.1,778.7 873.1,749.3 848.6,718.1C823.7,686.4 798,653.6 761.9,649C753.1,647.9 745.8,649.8 740.2,654.8C723.9,669.1 723.8,706.1 723.6,745.2C723.4,795.4 723.2,847.2 689.2,851.5C629.2,859 630.4,882.5 632.3,921.5C632.8,930.9 633.3,941.5 633,953C632.5,971.6 624.9,987.3 614.8,1000L621.1,1000C631.8,985.4 637.5,969.5 637.9,953.1C638.2,941.4 637.7,930.7 637.2,921.3C635.3,882.8 634.3,863.5 689.7,856.6C728.1,851.8 728.3,797.7 728.5,745.4C728.6,707.4 728.8,671.5 743.3,658.7C747.9,654.7 753.7,653.2 761.1,654.1C795.2,658.5 820.3,690.4 844.5,721.3C869.4,753.1 893,783.1 925.2,783.1L926.4,783.1C963.3,782.2 973.5,753.6 981.7,730.6C988.7,710.9 993.7,699 1007.4,700.6C1010.3,700.9 1013,701.1 1015.6,701.1C1054.8,701.1 1069.2,665 1082,633C1094.9,600.6 1106.1,572.7 1138.1,580.5C1170,588.3 1187.8,602 1194.2,623.8C1200.1,643.9 1196.2,668.7 1191.7,697.4C1190.4,705.8 1189,714.5 1187.9,723.4C1186.8,731.5 1185.7,739.4 1184.5,747.1C1180.1,776.9 1176.2,802.7 1181.1,824C1186.6,847.9 1202.7,862.6 1231.7,870.2C1250.9,875.2 1266.1,876.5 1278.3,877.6C1309.6,880.3 1319.1,881.2 1324.4,940C1325.3,950.6 1327,969 1324.3,1000.2L1329.2,1000.2C1331,980.2 1331.4,959.5 1329.5,939.3Z" style="fill-opacity:0.2;fill-rule:nonzero;"/>
            <path d="M1382.4,925.2C1379.3,890.9 1374.7,873.1 1366.2,863.7C1357.7,854.2 1345.6,853.2 1327.4,851.6C1313.8,850.4 1296.9,848.9 1275.6,843.4C1207.8,825.7 1215.4,774 1225.1,708.6C1226.4,699.9 1227.7,691 1228.9,681.8L1229.6,676.1C1234.5,639 1237.7,614.4 1228.4,595.9C1219.1,577.3 1197,565.3 1152.1,554.3C1112.9,544.7 1095.9,570.7 1078,598.3C1058.9,627.6 1039.2,657.9 991,652.2C972,650 968.6,667.5 964.7,687.7C959.7,713.8 954.1,743.3 914.9,744.2L913.6,744.2C879.4,744.2 857.5,711.5 834.3,676.9C810.5,641.5 786,604.8 745.9,599.7C736.7,598.5 729,600.5 723.2,605.7C705.6,621.2 705.4,662.5 705.3,706.2C705.1,763.7 704.9,823.1 664.8,828.1C633.9,832 616.5,839.7 608.4,853.2C600.7,865.9 601.6,883.1 602.7,904.8C603.2,915.4 603.8,927.4 603.5,940.4C602.9,965 591.4,985 578.3,999.9L580.3,999.9C593.2,984.9 604.4,964.9 605,940.4C605.3,927.3 604.7,915.3 604.2,904.7C602,861.4 600.8,837.6 665,829.5C706.3,824.3 706.5,764.2 706.8,706.1C707,662.7 707.1,621.8 724.2,606.7C729.8,601.8 736.9,600 745.8,601.1C785.2,606.1 809.5,642.5 833.1,677.6C856.5,712.6 878.7,745.6 913.7,745.6L915,745.6C955.4,744.6 961.4,713.1 966.3,687.8C970.2,667.5 973.3,651.4 990.9,653.5C1012.9,656.1 1031.1,651.4 1046.5,639.2C1060.1,628.5 1069.9,613.4 1079.3,598.9C1096.9,571.8 1113.6,546.2 1151.8,555.6C1241,577.4 1237.8,602.2 1228.2,675.7L1227.5,681.4C1226.3,690.5 1225,699.5 1223.7,708.1C1218.7,741.5 1214.5,770.4 1219.9,794C1225.9,820.2 1243.5,836.2 1275.3,844.5C1296.7,850.1 1313.7,851.6 1327.3,852.8C1362.9,855.9 1374.9,857 1381,925C1382.1,937.7 1384.2,960.4 1380.3,999.7L1381.8,999.7C1383.9,975.7 1384.6,950.1 1382.4,925.2Z" style="fill-opacity:0.2;fill-rule:nonzero;"/>
            <path d="M1298.7,459.2C1290.3,476.7 1301,492.4 1312.5,509C1324.3,526.1 1336.4,543.8 1331.9,566.5C1329.2,580.1 1332.5,593.9 1341.7,607.7C1354.4,626.7 1376.9,643 1400,654.1L1400,648.6C1378.5,637.9 1357.7,622.7 1345.9,605C1337.4,592.3 1334.4,579.7 1336.8,567.5C1341.8,542.7 1328.4,523.3 1316.7,506.2C1305.7,490.1 1296.1,476.3 1303.3,461.4C1310.8,445.8 1335.6,434.9 1374.9,429.8C1383.7,428.7 1392.3,427.9 1400.1,427.5L1400.1,422.4C1364.4,424.5 1311.8,432.2 1298.7,459.2Z" style="fill-opacity:0.2;fill-rule:nonzero;"/>
            <path d="M343.1,524.6C355.4,511.5 354,501.4 350.7,495.3C331,458.8 319.6,435.6 326.4,422.2C330.8,413.4 343.2,408.1 366.5,404.8C396.8,400.6 430.6,382.1 457.1,355.4C485.1,327.2 499.7,294.7 497.3,266.4C495.2,242.4 488.3,226.8 476,218.8C455.4,205.4 423.4,216.4 392.4,227C365.7,236.2 338.1,245.6 318.6,239.4C298.8,233 263.4,224.5 248.6,238.9C241.6,245.7 240.2,256.4 244.4,270.9C246.5,278.1 249,285.5 251.6,293.4C265,333.8 280.3,379.6 249.2,409.5C240.9,417.5 231.9,424.8 222.4,432.4C188.2,460 152.9,488.6 146.1,554.1C145,564.6 149.8,572.7 159.9,577.3C167.2,580.6 176.9,582.1 188.2,582.1C237.8,582 316.7,552.8 343.1,524.6ZM252.1,566C213,577.6 178.4,580.1 162,572.6C153.8,568.9 150.2,562.9 151.1,554.5C157.7,491.1 192.2,463.2 225.6,436.2C235.2,428.4 244.2,421.1 252.7,413C267.6,398.6 274,379.7 272.1,355.2C270.5,334.2 263,311.6 256.4,291.7C253.8,283.9 251.3,276.5 249.3,269.4C245.7,256.9 246.6,247.8 252.2,242.4C256.7,238.1 264.3,235.9 274.4,235.9C285.8,235.9 300.3,238.6 317.2,244C338.2,250.8 366.7,241 394.1,231.6C423.9,221.4 454.8,210.8 473.3,222.9C484.2,230 490.4,244.3 492.3,266.7C497.4,325.4 425.4,391.4 365.8,399.7C340.7,403.2 327.2,409.4 321.9,419.8C313.8,435.7 325.9,459.7 346.3,497.6C350,504.4 347.6,512.3 339.4,521.1C324.3,537.4 290.8,554.6 252.1,566Z" style="fill-opacity:0.2;fill-rule:nonzero;"/>
            <path d="M510.4,350.1C495.4,350.1 481.5,356 471,366.7C448.7,389.6 420.9,405.9 388.3,415.2C364.7,422 340.1,433.7 341.5,443.4C342.6,450.5 357.6,454.3 385,454.3C387.7,454.3 390.5,454.3 393.5,454.2C453.8,452.7 548.5,438.2 562.5,404.2C567.1,393 562.9,380.5 549.9,366.9C539.5,356.1 525.6,350.1 510.6,350C510.5,350.1 510.5,350.1 510.4,350.1ZM561.2,403.7C547.5,437 453.4,451.3 393.5,452.8C378.8,453.2 344.5,453 343,443.3C341.9,435.9 361.5,424.5 388.7,416.7C421.6,407.3 449.6,390.8 472.1,367.8C482.3,357.4 495.9,351.6 510.4,351.6L510.6,351.6C525.2,351.7 538.8,357.5 548.9,368C561.4,381.1 565.5,393.1 561.2,403.7Z" style="fill-opacity:0.2;fill-rule:nonzero;"/>
            <path d="M509.6,369C499.6,369 490.3,372.9 483.3,380.1C468.5,395.2 450.1,406 428.5,412.2C418.1,415.2 403,419.7 390.5,424.3C369.6,431.9 367.4,435.3 367.8,437.4C368.2,439.4 371.3,441.3 386.6,441.3C396.2,441.3 410.6,440.5 432.2,438.6C476.5,434.5 536.4,426.5 544.8,404.3C547.5,397.2 544.6,389.1 536.1,380.3C529.2,373.1 519.8,369.1 509.8,369L509.6,369ZM543.3,403.7C539.6,413.5 524.4,421.5 498,427.6C476.1,432.6 451.2,435.3 432,437.1C376.3,442.2 369.6,438.8 369.3,437.1C369.1,436.1 371.1,430.2 429,413.7C450.8,407.4 469.5,396.5 484.4,381.2C491.1,374.3 500,370.6 509.6,370.6L509.8,370.6C519.4,370.6 528.4,374.5 535,381.4C542.9,389.6 545.7,397.1 543.3,403.7Z" style="fill-opacity:0.2;fill-rule:nonzero;"/>
            <path d="M494.8,394.9C488.4,402 480.3,407.2 470.7,410.4C468.4,411.2 463.7,412.6 458.2,414.2C423,424.5 416.9,427.1 417.4,429.2C417.5,429.7 417.7,430.4 421.2,430.4C426.6,430.4 439.8,428.9 473,423.2C474.2,423 475.5,422.8 476.8,422.6C494.3,419.7 520.7,415.3 523.9,405C524.9,401.6 523.4,398 519.4,394.1C516,390.9 511.6,389.2 506.9,389.4C502.2,389.4 497.9,391.5 494.8,394.9ZM518.3,395.1C521.9,398.6 523.3,401.7 522.4,404.5C519.5,413.9 492.6,418.4 476.5,421.1C475.2,421.3 473.9,421.5 472.7,421.7C432,428.7 421.5,429.3 419.1,428.8C422.4,426.3 445.7,419.4 458.5,415.7C464,414.1 468.7,412.7 471,411.9C480.9,408.6 489.2,403.3 495.8,396C498.7,392.8 502.6,391 506.8,390.8C511.2,390.6 515.2,392.2 518.3,395.1Z" style="fill-opacity:0.2;fill-rule:nonzero;"/>
            <path d="M308.9,462.7C302.9,440 297.2,418.6 305.6,406.1C309.5,400.1 316.4,396.5 326.5,395.1C375,388.2 450.6,354.6 458.5,304.5C461.3,286.6 466,274.8 469.3,266.2C472.3,258.5 474.2,253.8 472.2,250.3C470.3,246.9 465.1,245.1 451.8,242.9C436.7,240.5 421.3,248.5 405,257C380.8,269.7 353.3,284 320,267C318.7,266.3 288.2,251 277,257.3C274.5,258.7 273.2,261 272.9,264.3C272.5,269.6 276.6,277.8 281.8,288.2C296.3,317.3 318.2,361.3 278.4,404.5C266.3,417.7 252.3,431.6 238.7,445C201.1,482.3 165.5,517.6 171.2,535.2C173,540.7 178.7,544.2 188.1,545.7C198.4,547.3 209.4,548.1 220.5,548.1C231.9,548.1 243.4,547.2 254.2,545.5C270.7,542.8 293.1,536.9 306.4,523.9C314.5,516 317.8,506.6 316.4,496.1C314.9,485.3 311.9,473.8 308.9,462.7ZM305.4,523C283.5,544.5 228.7,550.7 188.4,544.3C179.4,542.9 174.3,539.8 172.7,534.8C167.3,518 204.2,481.5 239.8,446.1C253.4,432.6 267.4,418.7 279.5,405.5C297.4,386.1 304.7,364.9 301.8,340.7C299.4,320.3 290.4,302.1 283.1,287.6C278,277.4 274,269.4 274.3,264.4C274.5,261.7 275.6,259.8 277.6,258.6C279.3,257.6 281.5,257.2 284,257.2C297.1,257.2 318.8,268.1 319.2,268.3C353.2,285.7 381,271.2 405.6,258.3C421.7,249.9 436.8,242 451.5,244.3C464.1,246.3 469.2,248.1 470.8,250.9C472.4,253.7 470.7,258.2 467.8,265.5C464.6,273.7 459.7,286.1 456.9,304.1C449.1,353.4 374.3,386.6 326.2,393.5C315.7,395 308.5,398.8 304.3,405.2C295.6,418.3 301.4,440 307.4,463C310.3,474.1 313.4,485.5 314.9,496.4C316.3,506.5 313.1,515.4 305.4,523Z" style="fill-opacity:0.2;fill-rule:nonzero;"/>
            <path d="M371.4,364.3C376.9,364.3 382.6,363.3 388.6,361C432,344.7 435.7,325.6 440.3,301.3C442,292.3 443.8,283 447.7,272.6C451.1,263.6 451.5,258.7 449.2,256.9C445.3,253.8 435.1,260.7 420.9,270.2C409.4,277.9 396.3,286.7 384.8,291C368.4,297.1 340.3,287.2 319.7,279.9C314.8,278.1 310.1,276.5 306.3,275.3C302.9,274.3 299.4,275.3 297,277.9C294.7,280.6 294.2,284.2 295.7,287.4C311.7,321.7 336.1,364.3 371.4,364.3ZM297,286.8C295.8,284.1 296.2,281.1 298.1,278.9C300,276.7 303,275.8 305.8,276.7C309.6,277.9 314.3,279.5 319.2,281.3C340,288.7 368.4,298.7 385.3,292.4C397,288 410.1,279.2 421.7,271.4C433.8,263.3 445.2,255.7 448.2,258.1C449.4,259 450,262.2 446.3,272.1C442.4,282.6 440.5,292.4 438.9,301.1C434.2,325.8 430.8,343.7 388.1,359.7C355,372 326,348.9 297,286.8Z" style="fill-opacity:0.2;fill-rule:nonzero;"/>
            <path d="M358,342.4C363.2,344.9 369.9,347.1 377.6,347.1C384.6,347.1 392.3,345.3 400.4,340.2C418,329.2 429.3,311.1 428.8,301.1C428.7,298.1 427.5,296 425.4,294.9C421.2,292.8 413.9,295.1 404.2,301.5L404,301.7C403.9,301.8 397,310.1 382.8,310.1C377.9,310.1 372.2,309.1 365.5,306.5C363,305.5 360.5,304.5 358.2,303.6C342.3,297.1 332.7,293.2 328.3,296.5C326.3,298 325.6,300.8 326.1,305.3C327.3,314.9 339.8,333.6 358,342.4ZM329.4,297.8C330.2,297.2 331.3,296.9 332.7,296.9C337.6,296.9 346.2,300.4 357.8,305.1C360.1,306 362.5,307 365.1,308C379.1,313.6 389.3,311.9 395.3,309.5C401.4,307.1 404.7,303.5 405.2,302.9C417.4,294.8 422.7,295.3 424.8,296.4C426.4,297.2 427.3,298.9 427.4,301.3C427.8,310.9 416.8,328.3 399.7,339C383.3,349.2 368.4,345.8 358.8,341.1C341.3,332.6 328.8,314.2 327.9,305.3C327.3,301.4 327.9,298.9 329.4,297.8Z" style="fill-opacity:0.2;fill-rule:nonzero;"/>
            <path d="M364,334.3C367.5,336.1 372.1,337.8 377.4,337.8C381.1,337.8 385,337 389.2,334.9C398.2,330.4 403.7,323.2 404,318.9C404.1,317.1 403.3,316.2 402.5,315.7C400.4,314.4 396.4,315.2 390.9,318.2L390.7,318.3C390.6,318.4 384.4,324.4 371.4,320.2C370.1,319.8 368.9,319.4 367.7,319C358.9,316.1 354,314.5 351.9,316.4C351,317.2 350.7,318.4 350.9,320.2C351.3,323.8 356.5,330.3 364,334.3ZM352.8,317.5C353.2,317.2 353.7,317.1 354.5,317.1C357,317.1 361.5,318.6 367.2,320.5C368.4,320.9 369.6,321.3 370.9,321.7C384.1,326 390.8,320.3 391.7,319.5C398.5,315.9 401,316.5 401.7,317C402.2,317.3 402.5,318 402.5,318.8C402.3,322.6 396.9,329.3 388.6,333.5C379,338.3 370.4,335.8 364.8,332.9C357.3,328.9 352.8,322.8 352.4,319.9C352.1,318.7 352.3,317.9 352.8,317.5Z" style="fill-opacity:0.2;fill-rule:nonzero;"/>
            <path d="M342.6,364.8C335,361.3 324.7,356.5 318.8,347.4C318,346.1 316.5,345.5 315,345.7C313.5,345.9 312.3,347 311.9,348.5C309.5,357.4 304.1,383.2 307.9,387.2C308.3,387.6 308.8,387.9 309.3,387.9L309.7,387.9C310.7,387.7 312.2,387.5 314.2,387.2C326.7,385.4 349.9,382 352.9,374.5C354.6,370.4 349.6,368 342.6,364.8ZM351.6,373.9C348.9,380.6 324.5,384.2 314.1,385.7C312.1,386 310.6,386.2 309.5,386.4C309.3,386.4 309.2,386.4 309,386.2C306.4,383.4 309.9,361.9 313.4,348.9C313.7,347.8 314.6,347.3 315.3,347.2L315.7,347.2C316.5,347.2 317.2,347.6 317.6,348.2C323.7,357.7 334.3,362.6 342,366.1C348.8,369.3 352.6,371.3 351.6,373.9Z" style="fill-opacity:0.2;fill-rule:nonzero;"/>
            <path d="M331.3,368.8C327.8,367.2 323,365 320.3,360.8C319.8,360.1 319,359.7 318.1,359.8C317.2,359.9 316.5,360.5 316.3,361.4C316.3,361.6 312.2,377.4 314.5,379.9C314.8,380.2 315.1,380.3 315.5,380.3L315.8,380.3C316.3,380.2 317,380.1 317.9,380C326.7,378.7 335,377.1 336.3,373.8C337.3,371.5 334.6,370.3 331.3,368.8ZM334.9,373.2C333.7,376.1 322,377.8 317.6,378.5C316.7,378.6 316,378.7 315.5,378.8C314.7,377.6 315.8,369 317.7,361.8C317.8,361.4 318.2,361.3 318.3,361.3L318.4,361.3C318.6,361.3 318.8,361.3 319,361.6C321.9,366.1 326.9,368.4 330.6,370.1C333.6,371.5 335.3,372.4 334.9,373.2Z" style="fill-opacity:0.2;fill-rule:nonzero;"/>
            <path d="M306.7,165.7C297.7,148.1 288.2,139.6 278.5,140.2C268.8,140.8 259.4,151.1 253.4,167.8C244.5,192.5 232.5,204.5 199.8,221.4C180.5,231.3 187.6,248 193.8,262.7C198.4,273.6 202.4,283 194.7,287.4C180.4,295.7 182.1,301.2 187.7,319.5C189.9,326.6 192.6,335.4 195.3,347.2C204.8,388.1 193.3,409.1 192.4,410.6C190.6,412.3 159.3,442.3 143.2,454.5C127.4,466.5 126.4,471.5 120.3,499.2C119.9,501.2 119.4,503.4 118.9,505.6C118,509.9 118.3,512.2 119.9,513.1C120.3,513.3 120.7,513.4 121.2,513.4C127.2,513.4 142,498.3 166.6,472.8C187.9,450.6 212.1,425.5 230.8,412.3C277.4,379.5 245.7,304.3 233.7,276.1C226.3,258.6 231.5,233.2 245.2,219.6C255.2,209.7 268.2,207.4 281.7,213.2C336.3,236.8 394.4,220.4 459.2,198.2C472,193.8 482.1,194.4 489.3,200C507.7,214.3 504.1,258.5 501.5,290.8C501,297.2 500.5,303.2 500.2,308.4C499.5,322.9 504,333.7 512.2,337.4C517,339.5 522.2,338.8 525.5,335.5C529,332 529.5,326.7 527,320.8C519,302.6 526.4,266 549,212.1C552.6,203.6 553,196.5 550.2,190.3C545.1,178.7 529.3,173.1 515.5,168.1C502.6,163.5 490.5,159.2 489.7,151C489.3,146.8 487.5,143.9 484.4,142.5C469.6,135.8 429.2,163.3 412.5,175.5C389.9,191.9 362.6,198.9 341.2,193.8C326,190.1 314.3,180.6 306.7,165.7ZM413.4,176.6C447.7,151.6 474,139.4 483.8,143.8C486.5,145 487.9,147.4 488.2,151.1C489,160.2 501.6,164.7 515,169.4C528.6,174.2 544,179.7 548.9,190.8C551.4,196.6 551,203.3 547.6,211.4C524.9,265.8 517.5,302.8 525.6,321.3C527.9,326.6 527.5,331.3 524.4,334.3C521.5,337.1 517,337.8 512.8,335.9C505.1,332.5 501,322.2 501.7,308.3C502,303.2 502.4,297.2 503,290.8C505.7,258.2 509.3,213.6 490.2,198.7C482.6,192.8 472.1,192.2 458.7,196.7C394.2,218.8 336.3,235.1 282.2,211.7C268.1,205.6 254.6,208 244.1,218.4C229.9,232.4 224.6,258.5 232.2,276.5C244,304.5 275.4,378.8 229.8,410.9C211,424.1 186.8,449.3 165.4,471.5C146.4,491.3 126.7,511.7 121.3,511.7C121,511.7 120.8,511.6 120.6,511.5C120.2,511.3 119.3,510.3 120.4,505.6C120.9,503.3 121.4,501.2 121.8,499.2C127.7,471.9 128.8,467 144.1,455.4C160.6,442.9 193.2,411.7 193.5,411.3L193.6,411.2C194.1,410.3 206.6,389.4 196.7,346.6C193.9,334.8 191.2,325.9 189.1,318.8C183.5,300.4 182.1,296.1 195.4,288.4C204.2,283.3 199.8,272.8 195.1,261.8C189.1,247.7 182.3,231.7 200.4,222.4C233.5,205.3 245.7,193.1 254.8,168C260.6,151.9 269.5,142 278.6,141.4L279.4,141.4C288.1,141.4 297.1,149.9 305.4,166.1C313.3,181.5 325.2,191.2 341,194.9C362.7,200.4 390.5,193.3 413.4,176.6Z" style="fill-opacity:0.2;fill-rule:nonzero;"/>
            <path d="M222,297.5C220.8,296.8 219.5,296.6 218.2,297C217.5,297 213.8,297.3 211.2,300.1C209.2,302.3 208.3,305.5 208.6,309.5C208.8,311.8 208.8,316.7 208.7,322.9C208.6,353 209.2,385.6 217.2,390.9C218,391.4 218.8,391.7 219.6,391.7C220.3,391.7 221,391.5 221.7,391.2C239.3,383.4 246,370.7 241.5,353.4C240.7,350.2 239.7,346.3 238.8,342.2C234.5,324 229.2,301.6 222,297.5ZM240.1,353.7C244.5,370.4 238.3,382.2 221.2,389.7C220,390.2 219,390.2 218,389.6C210,384.4 210.1,344.4 210.2,322.9C210.2,316.7 210.2,311.8 210.1,309.4C209.8,305.8 210.6,303.1 212.3,301.2C214.7,298.6 218.3,298.5 218.3,298.5L218.5,298.5C218.8,298.4 219.1,298.4 219.4,298.4C220,298.4 220.6,298.6 221.2,298.9C227.9,302.7 233.3,325.7 237.3,342.5C238.3,346.5 239.2,350.4 240.1,353.7Z" style="fill-opacity:0.2;fill-rule:nonzero;"/>
            <path d="M369,508.6C367.6,508.4 366.4,510.2 363.6,514.6C356.5,525.6 340,551.4 302.8,561.8C302.2,562 241.2,579.1 242.5,587.9C242.8,589.9 245.3,592.1 262,591.7C275.1,591.4 286.1,590.3 296.7,589.2C325.6,586.3 348.5,584 393.7,601.1C423.7,612.5 444.9,618.4 455.5,618.4C459.3,618.4 461.8,617.6 462.7,616.1C464.1,613.9 462.4,610.5 457.7,606.2C455.7,604.4 453,601.9 449.5,598.7C427.3,578.6 375.4,531.7 370.5,510.6C370.4,510.1 370.1,508.7 369,508.6ZM448.5,599.8C452,603 454.8,605.5 456.7,607.3C460.6,611 462.3,613.9 461.4,615.4C459,619.3 440.1,617.2 394.2,599.8C365.2,588.8 345.3,585.7 327.2,585.7C316.9,585.7 307.1,586.7 296.5,587.8C285.9,588.9 275,590 261.9,590.2C245.6,590.5 244,588.3 243.9,587.6C243.4,583.9 267,573.2 303.1,563.1L302.9,562.4L303.1,563.1C340.9,552.5 357.6,526.4 364.8,515.3C366.4,512.9 368,510.4 368.7,510C368.8,510.1 368.9,510.3 369,510.8C374.1,532.5 424.4,578 448.5,599.8Z" style="fill-opacity:0.2;fill-rule:nonzero;"/>
            <path d="M284.5,421.1C283.4,420.4 281.6,420 279.5,422.5C278.4,423.5 256.3,443 235.5,464.6C206.8,494.5 194,514.1 197.7,523C199.1,526.5 203.1,528.3 209.5,528.3C210.2,528.3 210.9,528.3 211.6,528.2C226.1,527.4 237.9,527.2 247.3,527C273.3,526.5 283,526.3 288.7,515.3C292.4,508.2 293.4,484.7 292.8,465.8C292.5,456.4 291.1,425.4 284.5,421.1ZM287.3,514.7C282,524.9 272.5,525.1 247.2,525.6C237.7,525.8 226,526 211.4,526.8C204.5,527.2 200.3,525.7 198.9,522.5C195.6,514.4 208.6,494.7 236.4,465.7C257.6,443.6 280.1,423.8 280.4,423.6L280.5,423.5C281.5,422.3 282.2,422 282.7,422C283.1,422 283.4,422.2 283.6,422.3C287.5,424.9 290.5,442 291.2,465.9C292,488.4 290.3,508.9 287.3,514.7Z" style="fill-opacity:0.2;fill-rule:nonzero;"/>
            <path d="M273.8,446.3C273.1,445.9 271.8,445.4 270.3,447.2C267.4,449.7 212.7,498 218.2,511.4C219.2,513.8 221.8,515 226,515L227.4,515C236.6,514.5 244.1,514.3 250.1,514.2C266.7,513.9 273,513.8 276.7,506.6C280.9,498 280.1,450.5 273.8,446.3ZM275.2,505.9C271.9,512.2 266.4,512.3 249.9,512.7C243.9,512.8 236.4,513 227.1,513.5C222.8,513.7 220.2,512.9 219.4,510.9C215.2,500.6 255.3,462.2 271.1,448.4L271.2,448.3C271.8,447.6 272.1,447.5 272.4,447.5C272.6,447.5 272.7,447.6 272.8,447.6C277.9,450.8 279.7,497.2 275.2,505.9Z" style="fill-opacity:0.2;fill-rule:nonzero;"/>
            <path d="M263.9,469.7C263.6,469.5 262.8,469.1 261.8,470.2C259,472.7 236.2,492.9 238.7,499C239.2,500.2 240.5,500.8 242.5,500.8L243.1,500.8C247.2,500.6 250.5,500.5 253.1,500.5C260.4,500.4 263.4,500.3 265.2,496.9C267.1,493.2 267.1,471.8 263.9,469.7ZM263.9,496.1C262.6,498.6 260.6,498.7 253.1,498.9C250.4,499 247.1,499 243,499.2C241.8,499.3 240.4,499.2 240,498.3C238.4,494.4 253.1,479.6 262.7,471.2L263,470.9C264.8,472.1 266,492 263.9,496.1Z" style="fill-opacity:0.2;fill-rule:nonzero;"/>
            <path d="M201.8,592.6C195.9,592.5 190.1,592.6 184.5,592.6C164.2,592.9 146.6,593.1 138.1,584.7C134.2,580.9 132.4,575.5 132.4,568.1C132.4,549.3 125.6,533.4 116.9,531.9C110.3,530.8 104,537.8 98.9,551.8L98.9,551.9C98.9,552.1 95.7,567.3 98.2,585.4C100.5,602.1 108.2,624.6 131.9,637.1C146.9,645 160.6,648 172.7,648C194.3,648 210.5,638.3 218.5,629.8C225.6,622.3 231.2,611.2 227.9,603.2C224.8,596.5 216.1,592.9 201.8,592.6ZM217.3,628.9C205.2,641.7 173.7,657.6 132.6,635.8C88.8,612.7 99.9,554.3 100.3,552.3C105.1,539.1 110.9,532.4 116.6,533.4C124.5,534.8 130.8,550.4 130.8,568.1C130.8,575.9 132.8,581.7 137,585.8C146,594.7 163.8,594.4 184.5,594.2C190.1,594.1 195.9,594.1 201.8,594.2C215.5,594.4 223.7,597.7 226.4,604C229.4,611.3 224,621.8 217.3,628.9Z" style="fill-opacity:0.2;fill-rule:nonzero;"/>
            <path d="M186.5,608.1C179.4,605.6 170.3,604 162.8,604C147.6,604 135.3,610.8 135.3,619.2C135.3,627.6 147.7,634.4 162.8,634.4C177.2,634.4 199.4,627.7 199.4,618.9C199.4,614.8 194.8,611 186.5,608.1ZM162.8,632.8C148.4,632.8 136.8,626.7 136.8,619.1C136.8,611.5 148.5,605.4 162.8,605.4C181.4,605.4 197.9,612.9 197.9,618.7C197.9,625.9 177.8,632.8 162.8,632.8Z" style="fill-opacity:0.2;fill-rule:nonzero;"/>
            <path d="M1262.4,936.1C1240.5,905.9 1203.5,905.3 1202.9,905.3C1202.7,905.3 1185,907 1170,893.4C1155.5,880.2 1148.3,857.5 1148.7,826.1C1149,796.8 1154.3,766 1159.3,736.3C1168.8,680.4 1177,632.1 1144.1,625.4C1118.4,620.1 1108.8,645.4 1098.6,672.1C1089.2,696.8 1079.4,722.4 1055.9,723.4C1035.4,724.2 1023.5,747.8 1010.9,772.7C1001.9,790.6 992.5,809.2 979.3,821C964.4,834.3 946.7,836.7 925.1,828.4C880.3,811.1 849.9,771.9 827.7,743.2C808.7,718.6 794.9,700.9 782.4,710.5C772.5,718.1 772.7,740.5 773,766.4C773.5,809.9 774,864 726.7,873.4C695.3,879.6 678,890.4 670.6,908.3C663.7,925 665.8,946.4 668.5,973.6C669.3,981.8 670.1,990.2 670.8,999.2C670.8,999.5 670.8,999.8 670.9,1000.1L672.4,1000.1C672.4,999.7 672.4,999.4 672.3,999C671.6,990 670.8,981.5 670,973.3C664.8,919.9 661.6,887.7 727,874.7C775.5,865.1 774.9,810.3 774.5,766.3C774.2,740.8 774,718.8 783.3,711.6C794.6,702.9 808,720.2 826.5,744C848.8,772.8 879.4,812.2 924.6,829.7C933.5,833.1 941.4,834.6 948.5,834.6C981.3,834.6 997.6,802.3 1012.2,773.2C1024.6,748.7 1036.2,725.5 1055.9,724.7C1080.3,723.7 1090.3,697.7 1099.9,672.5C1109.9,646.4 1119.3,621.7 1143.7,626.7C1175.3,633.1 1167.1,680.8 1157.8,735.9C1152.7,765.7 1147.5,796.5 1147.1,826C1146.7,857.9 1154.1,881 1168.9,894.5C1184.4,908.6 1202.7,906.8 1202.8,906.8C1203.2,906.8 1239.5,907.3 1261,937C1272.6,952.9 1277.9,974 1276.9,1000L1278.4,1000C1279.6,973.7 1274.2,952.3 1262.4,936.1Z" style="fill-opacity:0.2;fill-rule:nonzero;"/>
            <path d="M1129.1,791.7C1131.6,757.9 1136.1,726.6 1139.7,701.4C1144.5,667.9 1146.5,653 1142.5,651.7C1139.9,650.9 1135.7,655.1 1123.1,678.7L1123.1,678.8C1122.8,679.5 1093.1,747.8 1074.4,750.4C1067.7,751.3 1053.4,760.3 1038.1,773.4C1025.7,784 1011,798.8 1007.1,808.6C1005.7,812.1 1005.8,814.8 1007.2,816.6C1009.2,819.1 1013.6,819.7 1020.7,818.6C1026.4,817.7 1031.7,816.7 1036.8,815.7C1056.3,812 1070.5,809.3 1079.1,816.6C1086.3,822.7 1089.5,835.4 1089.2,857.9C1088.7,899.6 1114.6,921.5 1125.7,928.9C1136.1,935.8 1147.3,939.8 1155.8,939.8C1158.5,939.8 1160.9,939.4 1162.9,938.5C1164.7,937.7 1165.8,936.7 1166.3,935.2C1167.6,931.2 1164.1,925 1158.7,915.5C1146.5,894.3 1124.5,855.3 1129.1,791.7ZM1164.6,934.6C1164.2,935.6 1163.4,936.4 1162,937C1154.2,940.3 1139.5,936.4 1126.2,927.5C1115.3,920.2 1089.9,898.7 1090.4,857.7C1090.7,834.7 1087.4,821.6 1079.8,815.3C1075.5,811.7 1070.1,810.4 1063.5,810.4C1056,810.4 1046.9,812.1 1036.3,814.1C1031.2,815.1 1025.9,816.1 1020.3,817C1014,818 1009.8,817.5 1008.3,815.5C1007.2,814.1 1007.2,812 1008.4,809C1015.6,791 1060.8,753.6 1074.6,751.7C1094.1,749 1123.1,682.5 1124.5,679.3C1136.5,656.8 1140.7,652.6 1142.1,653.1C1145.1,654.1 1141.8,677 1138.3,701.2C1134.7,726.4 1130.2,757.8 1127.7,791.6C1123,855.6 1145.3,894.9 1157.2,916C1162.1,924.9 1165.7,931.3 1164.6,934.6Z" style="fill-opacity:0.2;fill-rule:nonzero;"/>
            <path d="M1219.1,921.6C1206.7,919.4 1195.2,924.7 1190.3,934.7C1180.2,955.6 1170.6,966.3 1159.9,968.5C1143.9,971.7 1125.1,955.3 1101.5,934.5C1094.1,928 1088.2,926 1084,928.5C1072.3,935.3 1076.8,975.5 1080.8,1000.1L1082.3,1000.1C1081.2,993.4 1080.1,985.6 1079.3,977.6C1076.4,950.1 1078.3,933.5 1084.8,929.8C1088.4,927.7 1093.7,929.7 1100.6,935.7C1122.5,955 1140.2,970.5 1155.9,970.5C1157.4,970.5 1158.9,970.4 1160.4,970.1C1171.6,967.8 1181.5,956.8 1191.8,935.5C1196.3,926.1 1207.2,921.2 1219,923.3C1237.4,926.6 1245.5,943.5 1246.9,958.3C1248.1,970.9 1248.7,985.7 1248.8,1000.2L1250.3,1000.2C1250.1,985.7 1249.6,970.8 1248.3,958.1C1246,934.6 1231.7,923.8 1219.1,921.6Z" style="fill-opacity:0.2;fill-rule:nonzero;"/>
            <path d="M1046.7,881.3C1051.8,868 1051.6,858.5 1046.1,852.9C1033.9,840.7 998.4,850.7 970.7,861.3C948.5,869.8 921.9,867.5 895.8,854.7C870.5,842.3 848.6,821.2 835.6,796.6C828.2,782.5 821.8,776.4 816.1,777.9C803.2,781.2 799.4,825.8 800.1,863C800.5,884.5 797.4,897.3 790,904.6C779.7,914.7 760.3,914.8 729.5,913.6C721.6,913.3 715.7,915.9 712.2,921.3C705.5,931.5 706.8,951.5 716.1,980.7C718.3,987.6 720.7,994.2 723,1000.1L724.6,1000.1C715.2,976.1 703.1,937.9 713.4,922.2C716.6,917.3 722,914.9 729.4,915.2C760.4,916.4 780,916.5 791,905.8C798.8,898.1 801.9,885.4 801.5,863.1C801.1,842.6 802.1,823.1 804.3,808.3C806.9,790.8 811.1,780.9 816.3,779.5C821,778.3 827.2,784.5 834.1,797.5C847.2,822.3 869.4,843.7 894.9,856.2C921.3,869.2 948.4,871.5 971,862.9C1020.3,844 1038.3,847.7 1044.8,854.2C1049.9,859.3 1050,868.3 1045.1,881C1033.2,911.8 1041.9,968.8 1048.2,1000.3L1049.7,1000.3C1043.6,968.8 1034.9,911.8 1046.7,881.3Z" style="fill-opacity:0.2;fill-rule:nonzero;"/>
            <path d="M1008,919.3C1013.7,903.7 1013.8,893.5 1008.4,888.2C999.9,879.8 979.7,886 963,892.3C947.7,898.1 929.7,899.9 913.4,897.1C899.7,894.8 880.7,888.1 867.9,869.3C858.5,855.5 850.2,849.5 843.6,851.8C835.2,854.8 831.5,871.7 833.8,897.1C837.3,936.1 822.5,941.3 786.7,953.9C782.7,955.3 778.6,956.7 774.3,958.3C764.3,962 758.8,967.1 758.2,973.6C757.3,982.5 765.7,992.3 774.4,1000L776.8,1000C767.9,992.4 758.9,982.4 759.8,973.7C760.4,967.8 765.5,963.1 774.9,959.7C779.3,958.1 783.4,956.7 787.3,955.3C822.8,942.8 839,937.1 835.4,896.9C833.2,872.7 836.6,855.9 844.2,853.2C849.9,851.2 857.9,857.2 866.7,870.1C879.8,889.3 899.2,896.2 913.2,898.6C929.7,901.4 948.1,899.6 963.6,893.7C978.6,888 999.4,881.3 1007.4,889.2C1012.3,894 1012,903.9 1006.7,918.7C997.6,943.7 995.9,974.8 998.4,1000L999.8,1000C997.2,975.1 999,944.1 1008,919.3Z" style="fill-opacity:0.2;fill-rule:nonzero;"/>
            <path d="M1114.9,826.9C1116.1,811.3 1117.6,795.9 1118.9,782.3C1122.6,743.7 1124.2,725.1 1119.8,723.4C1118,722.7 1116.1,725 1114.8,726.8C1109.4,734.4 1106.6,741.8 1104.2,748.3C1101.1,756.5 1098.7,762.9 1092.2,766C1084.1,769.4 1044.2,786.9 1045.4,794C1045.8,796.2 1049.1,796.7 1051.6,796.8C1054.8,797 1057.9,797.1 1060.9,797.2C1080.6,798 1094.9,798.5 1096.4,820.2C1098.5,849.7 1102.5,882.5 1122.4,898.5L1123.1,899.1C1127.3,902.4 1128.6,903.5 1129.3,903.5C1129.5,903.5 1129.7,903.4 1129.9,903.3C1130.6,902.7 1130.2,901.9 1128.6,898.6C1124.1,889.6 1112,865.2 1114.9,826.9ZM1124.1,898.1L1123.4,897.5C1103.9,881.9 1100.1,849.4 1097.9,820.2C1096.2,797.2 1080.7,796.5 1060.9,795.8C1057.9,795.7 1054.8,795.6 1051.6,795.4C1047.5,795.1 1046.9,794.2 1046.8,793.8C1046.4,791.3 1058.5,782 1092.7,767.4C1099.8,764.1 1102.3,757.4 1105.5,748.9C1107.9,742.5 1110.6,735.2 1115.9,727.8C1117.7,725.2 1118.7,724.9 1119,724.9L1119.1,724.9C1122.6,726.2 1120,753.4 1117.2,782.2C1115.9,795.8 1114.4,811.2 1113.2,826.8C1110.3,865.5 1122.4,890.2 1127,899.4C1127.4,900.1 1127.7,900.8 1128,901.4C1127.3,900.7 1125.8,899.5 1124.1,898.1Z" style="fill-opacity:0.2;fill-rule:nonzero;"/>
            <path d="M969.7,939.2C970.7,935.1 970.3,932 968.5,929.9C964.1,924.9 952.7,926.2 938.3,927.8C917.3,930.1 891.2,933 878.1,916.6C873.3,910.6 869.5,908.1 866,908.7C860.1,909.7 856.8,919.6 852.6,932C847.1,948.4 840.2,968.8 824.7,974.8C816,978.2 811.5,982.4 811.4,987.2C811.3,991.8 815.1,996.3 819.6,1000L822.1,1000C817.2,996.4 812.8,991.8 813,987.3C813.1,983.1 817.3,979.3 825.4,976.2C841.6,969.9 848.5,949.1 854.1,932.4C858,920.9 861.3,911 866.3,910.1C869.2,909.6 872.7,912 877,917.4C890.6,934.4 917.1,931.5 938.5,929.1C952,927.6 963.6,926.3 967.5,930.7C969,932.4 969.3,935 968.4,938.7C965.4,950.6 965,962.7 964.5,974.3C964.1,983.7 963.8,992.4 962.1,999.9L963.6,999.9C965.2,992.4 965.6,983.8 965.9,974.4C966.3,962.9 966.8,951 969.7,939.2Z" style="fill-opacity:0.2;fill-rule:nonzero;"/>
            <path d="M1219.1,954.1C1217.4,951.1 1215.7,949.7 1213.8,949.5C1210.6,949.2 1207.6,952.7 1203,958C1197.1,964.9 1189,974.3 1175.5,981.8C1156.2,992.6 1149.2,988.4 1136.3,980.7C1129.8,976.8 1121.8,972 1110.1,967.8C1103,965.3 1098.1,965.5 1095.6,968.5C1092.2,972.7 1093.6,982.1 1099.9,996.4C1100.4,997.6 1101,998.8 1101.6,1000L1103.3,1000C1102.6,998.6 1102,997.2 1101.4,995.8C1095.4,982.3 1093.9,973.2 1096.9,969.5C1098.9,967 1103.2,966.9 1109.7,969.2C1121.3,973.3 1129.3,978.1 1135.7,982C1148.5,989.7 1156.3,994.4 1176.4,983.2C1190.1,975.5 1198.3,966 1204.3,959.1C1208.4,954.3 1211.4,950.8 1213.8,951.1C1215.1,951.2 1216.5,952.5 1217.9,955C1221.9,961.9 1223.3,981.1 1222.8,1000.1L1224.4,1000.1C1224.9,980.7 1223.4,961.4 1219.1,954.1Z" style="fill-opacity:0.2;fill-rule:nonzero;"/>
            <path d="M932.2,961.8C929.7,959.1 924.4,959.5 918.4,960.1C910.8,960.8 901.3,961.7 894.5,956.3C891.6,954 889.1,953.1 887,953.7C883.4,954.7 881.5,959.5 879.3,965.2C876.5,972.4 873,981.4 865,984.7C860.4,986.6 858,989.1 857.9,992C857.8,994.9 859.9,997.7 862.5,1000.1L864.8,1000.1C861.8,997.7 859.3,994.8 859.4,992.1C859.5,989.8 861.6,987.8 865.6,986.1C874.2,982.5 877.9,973.2 880.8,965.7C882.9,960.4 884.6,955.9 887.5,955.1C889.1,954.7 891.1,955.4 893.7,957.5C901,963.3 910.8,962.4 918.7,961.7C924.4,961.2 929.2,960.7 931.3,962.9C932.4,964.1 932.7,966.2 932.2,969.2C930.3,980.1 926.8,992 922.7,1000L924.4,1000C928.5,991.9 931.8,980.4 933.8,969.4C934.1,965.9 933.7,963.4 932.2,961.8Z" style="fill-opacity:0.2;fill-rule:nonzero;"/>
            <path d="M1275.1,613.1C1260.3,615.1 1252.4,629.4 1251.1,642.6C1238.9,767 1258.6,801.4 1277.2,808.4C1280,809.4 1282.7,810 1285.3,810C1290.8,810 1295.8,807.7 1300.3,803.1C1311.9,791.4 1318.9,765.6 1319.7,732.4C1320.5,698.4 1314.2,661.8 1302.6,632.1C1296.4,616.2 1284.3,611.9 1275.1,613.1ZM1318.2,732.3C1317.5,764.6 1310.4,790.7 1299.2,802C1293,808.3 1285.8,810 1277.7,807C1262.8,801.4 1253.6,780.4 1250.2,744.5C1247.7,717.8 1248.5,683.6 1252.5,642.7C1253.7,630.1 1261.2,616.5 1275.2,614.6C1276.2,614.5 1277.2,614.4 1278.2,614.4C1288,614.4 1296.6,621.1 1301.1,632.6C1312.8,662.1 1318.9,698.5 1318.2,732.3Z" style="fill-opacity:0.2;fill-rule:nonzero;"/>
            <path d="M1278.4,651.7C1269.3,653 1264.4,661.7 1263.6,669.8C1259.5,711.4 1259,762.7 1279.6,770.4C1281.3,771 1282.9,771.3 1284.5,771.3C1287.9,771.3 1291.1,769.9 1293.8,767.1C1307.4,753.3 1311.1,703.9 1295.3,663.4C1291.5,653.5 1284.1,650.9 1278.4,651.7ZM1292.8,766C1289.1,769.7 1284.9,770.7 1280.1,768.9C1259.3,761.1 1261.8,703.5 1265.1,669.9C1265.8,662.4 1270.3,654.3 1278.6,653.2C1279.2,653.1 1279.8,653.1 1280.4,653.1C1286.2,653.1 1291.3,657.1 1294,663.9C1309.6,703.9 1306.2,752.5 1292.8,766Z" style="fill-opacity:0.2;fill-rule:nonzero;"/>
            <path d="M1281.3,685.6C1278.3,686 1275.2,688.7 1274.7,693.7C1273,711.5 1272.8,733.5 1281.8,736.8C1282.6,737.1 1283.3,737.2 1284.1,737.2C1285.7,737.2 1287.1,736.6 1288.4,735.3C1294.9,728.7 1295.3,706.6 1289.1,690.8C1287.3,686.5 1283.9,685.3 1281.3,685.6ZM1287.2,734.3C1285.8,735.8 1284.1,736.1 1282.3,735.4C1276,733 1273.8,718.3 1276.2,693.8C1276.6,689.6 1279.2,687.4 1281.6,687.1L1282.3,687.1C1284.6,687.1 1286.6,688.7 1287.7,691.4C1292.9,705.1 1293.8,727.6 1287.2,734.3Z" style="fill-opacity:0.2;fill-rule:nonzero;"/>
            <path d="M1243.3,501.3C1242,495.1 1237.3,489.7 1228.8,484.9C1228.6,484.8 1211.3,476.1 1191.4,470.5C1164.6,463 1146.2,464.5 1136.9,475.1C1109.3,506.4 1078.4,518.2 1060.1,515.9C1053.3,515.1 1046.4,511.2 1039.7,507.5C1029.9,502.1 1020.7,497 1011.9,500.5C1004.4,503.4 998.4,512.4 993.3,527.9C990,538.1 985.7,549.5 981.6,560.5C968.1,596.8 955.4,631 965.8,640.8C967.7,642.6 970.2,643.5 973.5,643.5C977.5,643.5 982.6,642.1 988.8,639.4C1040.7,616.4 1053.4,608.2 1069.7,573C1072.3,567.3 1074.5,562 1076.5,556.9C1086.9,531.3 1093.1,515.8 1134.4,522.4C1154.9,525.7 1170.9,533.1 1183.7,539.1C1202.5,547.8 1214.9,553.6 1225.6,539.6C1237,524.5 1245.5,512.2 1243.3,501.3ZM1224.4,538.5C1214.5,551.5 1202.5,546 1184.3,537.5C1171.4,531.5 1155.3,524 1134.6,520.7C1092.2,513.9 1085.4,530.7 1075.1,556.1C1073,561.2 1070.9,566.5 1068.3,572.1C1052.2,606.8 1039.6,615 988.2,637.7C977.7,642.3 970.5,642.9 966.8,639.4C957.1,630.3 970.3,594.9 983,560.7C987.1,549.7 991.3,538.3 994.7,528.1C999.6,513 1005.4,504.4 1012.4,501.6C1014.2,500.9 1016,500.6 1017.9,500.6C1024.5,500.6 1031.6,504.5 1039,508.6C1045.8,512.4 1052.9,516.3 1059.9,517.1C1085.9,520.4 1117.9,498.7 1138.1,475.9C1159.3,451.7 1226.8,485.4 1228.2,486.1C1236.3,490.7 1240.7,495.7 1241.9,501.5C1243.9,511.8 1235.6,523.9 1224.4,538.5Z" style="fill-opacity:0.2;fill-rule:nonzero;"/>
            <path d="M1060.4,529.9C1059.3,529.2 1033.4,512.6 1019,516.9C1015.4,518 1012.8,520.2 1011.3,523.7C1009.8,527 1007.2,532.2 1003.9,538.8C990.4,565.8 967.7,611 975.4,620.1C976.4,621.3 977.8,621.8 979.6,621.8C980.7,621.8 981.9,621.6 983.2,621.2C994.6,617.7 1014,605 1031.4,589.7C1051.3,572.2 1063.8,555.5 1065.7,543.9C1066.7,537.9 1064.9,533.1 1060.4,529.9ZM1064.2,543.6C1060,569.2 1004.4,613.1 982.8,619.7C979.8,620.6 977.8,620.4 976.6,619C969.5,610.6 992.8,564.2 1005.3,539.3C1008.6,532.7 1011.2,527.5 1012.7,524.2C1014,521.2 1016.3,519.2 1019.5,518.3C1021,517.9 1022.6,517.7 1024.4,517.7C1038.5,517.7 1058.9,530.7 1059.6,531.1C1063.5,534 1065.1,538.2 1064.2,543.6Z" style="fill-opacity:0.2;fill-rule:nonzero;"/>
            <path d="M1039,550.5C1038.5,550.1 1026.3,542.3 1019.4,544.4C1017.6,544.9 1016.3,546.1 1015.5,547.8C1014.8,549.3 1013.6,551.7 1012.1,554.8C1003.5,571.9 995.4,589 998.9,593.1C999.4,593.7 1000.2,594.1 1001.1,594.1C1001.6,594.1 1002.2,594 1002.9,593.8C1008.3,592.1 1017.3,586.2 1025.5,579C1029.9,575.1 1040.3,565.2 1041.6,557.4C1042.1,554.4 1041.2,552.1 1039,550.5ZM1040.1,557.1C1038.1,568.9 1012.5,589.2 1002.5,592.2C1001.3,592.6 1000.5,592.5 1000,592C996.9,588.3 1008,566 1013.4,555.3C1014.9,552.2 1016.2,549.8 1016.9,548.2C1017.5,546.9 1018.4,546.1 1019.8,545.7C1020.5,545.5 1021.2,545.4 1022,545.4C1028.4,545.4 1037.7,551.3 1038.2,551.6C1039.9,553 1040.5,554.7 1040.1,557.1Z" style="fill-opacity:0.2;fill-rule:nonzero;"/>
            <path d="M1027.2,561.8C1026.7,561.5 1022.3,558.7 1019.6,559.5C1018.8,559.7 1018.2,560.3 1017.9,561C1017.7,561.6 1017.2,562.5 1016.6,563.6C1012.5,571.9 1010.5,576.6 1011.8,578.2C1012,578.5 1012.4,578.7 1013,578.7C1013.2,578.7 1013.5,578.7 1013.8,578.6C1017.8,577.4 1027.6,569.6 1028.4,564.8C1028.6,563.5 1028.2,562.5 1027.2,561.8ZM1026.9,564.6C1026.3,568.5 1017.3,576 1013.4,577.2C1013.1,577.3 1013,577.3 1013,577.3C1012.4,576.5 1014.1,572.1 1018,564.3C1018.6,563.2 1019,562.3 1019.3,561.7C1019.5,561.3 1019.7,561.1 1020.1,561C1020.3,560.9 1020.5,560.9 1020.8,560.9C1022.6,560.9 1025.4,562.4 1026.5,563.1C1026.8,563.4 1027,563.9 1026.9,564.6Z" style="fill-opacity:0.2;fill-rule:nonzero;"/>
            <path d="M912.1,700.9C886.6,684.3 869.7,626.7 851.7,558.8C847.9,544.5 840.6,534.7 830,529.5C802.1,515.9 755.6,536 718.2,552.1C706,557.4 694.4,562.4 684.8,565.6C639.9,580.8 610.9,625.7 605.3,688.9C601.7,728.8 586.7,748.6 569.3,771.5C562.2,780.9 554.8,790.6 547.4,802.5C521.5,844.3 547.6,867.6 575.2,892.2L576.6,893.4C579.8,896.2 582.1,897.6 583.8,897.6C584.3,897.6 584.7,897.5 585.1,897.3C588.3,895.8 588.1,888.8 587.7,878.2C586.8,854.4 585.4,814.4 627.1,809.6C666.2,805.1 670.8,767 676.6,718.7C681.2,680.4 686.4,636.9 709.7,598.2C720.9,579.6 733.9,570.1 748.3,569.8L748.9,569.8C788.2,569.8 831.9,636.6 860.8,680.9C865.7,688.3 870.2,695.3 874.3,701.3C889.1,722.9 901.7,731 911.7,725.2C915.9,722.8 918.5,718.4 918.6,713.5C918.9,708.5 916.4,703.7 912.1,700.9ZM911.1,724C902,729.2 889.8,721.1 875.7,700.5C871.6,694.6 867.1,687.6 862.2,680.2C833,635.7 789,568.5 748.9,568.5L748.2,568.5C733.2,568.8 719.8,578.6 708.3,597.6C684.8,636.6 679.6,680.2 675,718.7C669.3,766.3 664.8,803.9 626.9,808.3C583.8,813.3 585.2,854.1 586.1,878.4C586.4,887.3 586.7,895 584.4,896.1C583.5,896.5 581.7,896.2 577.5,892.5L576.1,891.3C549,867.1 523.4,844.3 548.6,803.5C556,791.6 563.3,781.9 570.4,772.6C587.9,749.5 603.1,729.5 606.7,689.2C612.3,626.6 640.9,582.1 685.2,567.2C694.8,563.9 706.4,558.9 718.7,553.6C747.3,541.3 781.3,526.6 807.8,526.6C815.7,526.6 823,527.9 829.2,530.9C839.5,535.9 846.5,545.4 850.2,559.2C868.2,627.4 885.3,685.3 911.2,702.2C915.1,704.7 917.3,709 917.2,713.6C917.1,718 914.8,721.9 911.1,724Z" style="fill-opacity:0.2;fill-rule:nonzero;"/>
            <path d="M923.4,641.1C916.8,642.4 911.1,646.6 907.9,652.5C904.7,658.4 904.4,665.4 907,671.6C916.4,694 924.4,705.8 930.7,706.7C931,706.7 931.2,706.8 931.5,706.8C933.3,706.8 934.9,705.9 936.3,704.1C944.2,694.2 956.7,662.6 947.7,648C943.5,641.1 935.3,638.8 923.4,641.1ZM935.1,703.2C933.8,704.8 932.5,705.5 930.9,705.3C925.3,704.5 917.4,692.4 908.4,671.1C906,665.3 906.3,658.8 909.2,653.3C912.2,647.7 917.4,643.8 923.6,642.6C934.8,640.4 942.5,642.5 946.3,648.8C955,662.9 942.8,693.5 935.1,703.2Z" style="fill-opacity:0.2;fill-rule:nonzero;"/>
            <path d="M925.6,657C922.2,657.7 919.3,659.8 917.6,662.9C916,666 915.8,669.5 917.1,672.7C921.8,684 925.9,689.9 929.2,690.4L929.6,690.4C930.4,690.4 931.4,690.1 932.3,688.9C934.5,686.1 937,680.7 938.4,675.7C939.7,671.1 940.6,664.7 938.1,660.5C936,657.1 931.8,655.8 925.6,657ZM931.2,688.1C930.5,689 929.9,689 929.5,689C926.9,688.6 922.9,682.5 918.6,672.2C917.4,669.4 917.6,666.3 919,663.7C920.4,661 923,659.2 925.9,658.6C931.3,657.5 935,658.5 936.8,661.5C941,668.2 934.9,683.4 931.2,688.1Z" style="fill-opacity:0.2;fill-rule:nonzero;"/>
            <path d="M667.6,599.9C664.1,597.9 659.2,600.1 652.5,606.5L652.3,606.7C652.1,607.1 632.1,651.4 618.3,706.8C610.8,736.9 591.9,765.2 576.7,788C563.5,807.8 554,822 557.4,829.3C559.4,833.5 560.5,835 562,835.1L562.2,835.1C563.8,835.1 565.1,833.2 567.4,829.9C571.2,824.4 577.7,815.1 591.5,805.6C602.2,798.2 611.6,795.7 619.1,793.8C632.1,790.4 640.6,788.1 643.8,765.1C645,756.5 648.8,740.2 653.3,721.5C665.2,670.5 680.2,607.1 667.6,599.9ZM651.7,721.1C647.3,739.9 643.4,756.2 642.2,764.9C639.1,786.9 631.4,789 618.6,792.3C611,794.3 601.5,796.8 590.5,804.3C576.4,814 569.9,823.4 566,829C564.2,831.5 562.8,833.5 562,833.5C560.9,833.4 559.3,829.9 558.7,828.5C555.7,822 565.5,807.3 577.9,788.7C593.2,765.8 612.2,737.4 619.7,707C633.1,653.2 652.4,610 653.6,607.3C659.6,601.6 664.1,599.4 666.8,601C678.5,607.8 662.4,676 651.7,721.1Z" style="fill-opacity:0.2;fill-rule:nonzero;"/>
            <path d="M807.4,543C803.9,542.4 800.8,544 798.4,547.6C794.3,553.8 794.5,562.2 798.9,568.5C807.3,580.5 823.6,603.5 838.6,623.5C863.1,656.2 868.4,659.8 870.2,659.8C870.5,659.8 870.7,659.7 870.8,659.6C872,659 871.7,657.2 871.3,655.7C867.1,639.6 830,546.7 807.4,543ZM870.2,658.3C866.2,658.1 838.8,622.7 800.2,567.7C796.1,561.9 795.9,554.2 799.7,548.5C801.8,545.4 804.2,544.1 807.2,544.6C828.1,548.1 865.1,638 869.9,656.3C870.3,657.5 870.2,658.1 870.2,658.3Z" style="fill-opacity:0.2;fill-rule:nonzero;"/>
            <path d="M569.7,948.3C573.3,930.3 571.1,912.1 564.3,903.9C554.8,892.5 521.8,897.7 483.5,903.8C466.5,906.5 448.8,909.3 431.7,910.9C408.5,913.1 391.1,930.8 381.4,962.1C376.9,976.7 375,991.1 374.2,1000L375.7,1000C376.5,991.2 378.3,976.9 382.8,962.6C389.4,941.2 403.3,915.2 431.8,912.5C449,910.9 466.7,908.1 483.7,905.3C521.5,899.3 554.1,894.1 563.1,904.9C568.5,911.3 572.3,927.6 568.2,948C565.6,960.9 558.1,982.7 536.8,1000L539.1,1000C559.8,982.6 567.1,961.1 569.7,948.3Z" style="fill-opacity:0.2;fill-rule:nonzero;"/>
            <path d="M528.9,923.9C519.1,914.4 485.2,924.3 449.3,934.8C445.3,936 441.4,937.1 437.4,938.3C424.6,942 415.9,948.9 411.6,958.8C405.6,972.7 409.5,989.7 413.1,1000L414.7,1000C411.2,990 407.1,973.1 413,959.4C417.1,949.9 425.5,943.3 437.8,939.7C441.8,938.6 445.7,937.4 449.7,936.2C483.6,926.3 518.7,916.1 527.8,925C530.3,927.4 530.8,931 529.5,936.1C525.1,953.3 509.9,980.9 498.6,1000L500.3,1000C511.6,980.9 526.5,953.6 530.9,936.5C532.5,930.9 531.8,926.7 528.9,923.9Z" style="fill-opacity:0.2;fill-rule:nonzero;"/>
            <path d="M471,961.1C468.9,959 465.6,958.7 461.4,960.3C443.9,967 440.6,987.2 440.4,1000L441.9,1000C442.1,987.6 445.3,968.1 462,961.7C465.6,960.3 468.3,960.4 470,962.1C473.6,965.7 473.1,976.5 468.6,993.3C468,995.6 467.3,997.9 466.7,1000L468.3,1000C472.6,985.5 476.7,966.8 471,961.1Z" style="fill-opacity:0.2;fill-rule:nonzero;"/>
            <path d="M189.7,878.5C194.8,882.9 196.6,889 195.1,897.1C188.3,933.9 166.8,973 149.5,1000L155.4,1000C172.6,972.8 193.3,934.4 200,898C201.8,888.2 199.4,880.3 192.9,874.7C163.8,849.5 55.3,877.4 -0.1,893.9L-0.1,899.2C17.7,893.9 41.3,887.3 65.9,881.7C132,866.7 174.8,865.6 189.7,878.5Z" style="fill-opacity:0.2;fill-rule:nonzero;"/>
            <path d="M1218,504.4C1217.9,504.3 1206.8,495.9 1194,489.8C1176.6,481.4 1164.4,481 1158,488.6C1151.5,496.2 1147.5,502.3 1149.2,507.1C1150.9,512 1158.1,515.3 1175,518.8C1185.4,520.9 1194.1,521.8 1201.1,521.8C1213,521.8 1220.1,519.2 1222,515.8C1223.5,512.8 1222.3,509 1218,504.4ZM1220.6,515C1217.3,520.9 1197.8,521.9 1175.2,517.2C1159.2,513.9 1152,510.8 1150.6,506.5C1149.4,502.9 1151.8,497.9 1159.2,489.4C1162.1,486 1166.3,484.6 1171,484.6C1189.1,484.6 1215.8,504.5 1217.1,505.5C1220.7,509.5 1221.9,512.7 1220.6,515Z" style="fill-opacity:0.2;fill-rule:nonzero;"/>
            <path d="M1018.9,139.8C1000.5,178.8 1001.8,208.6 1003.3,243C1003.5,248.2 1003.8,253.6 1004.1,259.4C1005.8,290.8 1008,329.8 997.9,351.3C993,361.8 995.9,367.8 999.3,371.1C1008.2,379.8 1030,378.8 1049.9,368.8C1064,361.8 1076.8,370.3 1088.1,377.9C1095.3,382.7 1102.1,387.3 1108.5,387.3C1109.4,387.3 1110.2,387.2 1111.1,387C1115.1,386.2 1118.5,383.3 1121.6,378.4C1130.5,364.3 1147.6,344.3 1169.1,330.5C1186.5,319.3 1212.9,308.5 1239.7,320.7C1249.9,325.3 1261.9,332.6 1274.5,340.3C1303,357.7 1337.4,378.7 1368.7,378.7C1373.7,378.7 1378.7,378.2 1383.5,377C1389.3,375.6 1394.9,373.2 1400.1,369.9L1400.1,368.2C1394.8,371.6 1389.2,374 1383.2,375.5C1349,383.9 1308.2,359 1275.4,339C1262.7,331.3 1250.8,324 1240.5,319.3C1218.8,309.4 1193.9,312.9 1168.5,329.2C1146.9,343.1 1129.6,363.3 1120.6,377.6C1117.7,382.2 1114.6,384.8 1111,385.5C1104.5,386.9 1097,381.9 1089.1,376.6C1077.5,368.8 1064.3,360 1049.4,367.4C1030.3,377 1008.8,378.1 1000.5,370C996.2,365.8 995.9,359.6 999.4,351.9C1009.7,330.1 1007.5,290.8 1005.7,259.3C1005.4,253.5 1005.1,248.1 1004.9,242.9C1003.4,208.6 1002.1,179.1 1020.4,140.4C1039.3,100.4 1039.8,56.1 1036.8,26C1035.9,16.4 1034.5,7.6 1033.1,-0.1L1031.6,-0.1C1033,7.6 1034.4,16.5 1035.3,26.1C1040.5,80.4 1029.2,117.9 1018.9,139.8Z" style="fill-opacity:0.2;fill-rule:nonzero;"/>
            <path d="M1051.3,132.7L1049.4,137.3C1030.6,183.4 1030.6,183.4 1030.4,209.8C1030.4,214.4 1030.3,219.6 1030.2,226C1029.9,238.6 1028.3,254.2 1026.7,269.3C1023.3,301.5 1020.1,331.8 1028.9,337.6C1031.3,339.2 1034.5,338.8 1038.3,336.6C1055.7,326.6 1073.2,317.9 1083.1,322.3C1087.2,324.1 1089.8,328 1091.2,334.1C1092.9,342.1 1095.3,346.2 1098.5,347C1098.9,347.1 1099.3,347.1 1099.7,347.1C1105.2,347.1 1112.4,338.3 1122.8,325.5L1124.5,323.4C1136.1,309.2 1166.1,285.8 1197.3,283.4C1213.5,282.2 1227.7,286.9 1239.5,297.5C1253.3,310 1274.6,321.5 1297.9,329.1C1322.4,337.1 1346.5,340.1 1366,337.5C1380.5,335.6 1391.9,330.8 1400,323.2L1400,321.1C1392.1,329 1380.6,334 1365.8,336C1323.4,341.6 1266.8,320 1240.5,296.4C1228.4,285.6 1213.9,280.7 1197.2,282C1165.6,284.4 1135.2,308.1 1123.4,322.5L1121.7,324.6C1111.2,337.4 1103.7,346.7 1098.9,345.5C1096.3,344.9 1094.3,341 1092.7,333.8C1091.3,327.2 1088.3,322.9 1083.8,320.9C1077.6,318.1 1067.6,318 1037.6,335.3C1034.2,337.2 1031.7,337.6 1029.7,336.3C1021.7,331.1 1025,299.7 1028.2,269.4C1029.8,254.3 1031.4,238.6 1031.7,225.9C1031.8,219.5 1031.9,214.3 1031.9,209.7C1032.1,183.6 1032.1,183.6 1050.8,137.8L1052.7,133.2C1065.2,102.6 1065.9,62.4 1064.3,34.1C1063.6,21 1062.3,9.2 1061.1,-0L1059.6,-0C1060.8,9.3 1062.1,21.1 1062.8,34.2C1064.4,62.4 1063.6,102.4 1051.3,132.7Z" style="fill-opacity:0.2;fill-rule:nonzero;"/>
            <path d="M1099.8,209.3C1092.5,234.8 1087.3,253.2 1095.3,261C1100.7,266.3 1112,266 1130.8,260.1C1146.9,255 1161.5,249.1 1175.6,243.4C1220.3,225.3 1255.6,210.9 1292.1,247.5C1308.2,263.6 1331.9,277.7 1357.2,286C1372.2,291 1386.8,293.6 1400.1,293.8L1400.1,292.3C1386.9,292.1 1372.5,289.5 1357.7,284.6C1332.7,276.3 1309.2,262.4 1293.2,246.4C1256,209.1 1220.3,223.6 1175.1,242C1161,247.7 1146.5,253.6 1130.5,258.7C1112.3,264.4 1101.5,264.8 1096.4,260C1089.1,252.9 1094.5,233.9 1101.3,209.8C1106.3,192.3 1112,172.4 1114.9,150.8C1122,98.2 1127.4,34.3 1130,0.1L1128.5,0.1C1125.9,34.3 1120.4,98.1 1113.4,150.6C1110.4,172 1104.8,191.8 1099.8,209.3Z" style="fill-opacity:0.2;fill-rule:nonzero;"/>
            <path d="M1063.3,200.8C1052.3,241.3 1052.7,269.9 1064.6,283.5C1070.7,290.5 1079.7,293.3 1091.2,291.8C1121.4,287.8 1145.9,275.1 1167.5,263.8C1199.8,247 1223.1,234.8 1244.5,264.5C1267.2,296.1 1311.2,305.4 1344.2,307.8C1350.5,308.2 1357.1,308.5 1363.7,308.5C1375.6,308.5 1387.9,307.8 1400.2,306.4L1400.2,304.9C1381.1,307 1362.1,307.6 1344.3,306.3C1311.7,304 1268.1,294.7 1245.8,263.7C1223.7,233 1198.6,246 1166.9,262.6C1145.4,273.8 1121.1,286.5 1091.1,290.4C1080.1,291.8 1071.6,289.2 1065.9,282.6C1054.4,269.5 1054.1,241.4 1065,201.3C1076.4,159.4 1083.1,98.8 1086.8,55.3C1088.6,34.2 1089.8,14.9 1090.6,0.1L1089.1,0.1C1088.3,14.9 1087,34.1 1085.3,55.2C1081.4,98.5 1074.6,159 1063.3,200.8Z" style="fill-opacity:0.2;fill-rule:nonzero;"/>
            <path d="M1161,192.4C1165.5,197.9 1171.4,200.3 1178.8,199.6C1221.2,195.6 1245.1,183.9 1260.8,176.2C1280.4,166.6 1287,163.4 1304,185.2C1320.3,205.9 1351.2,218.8 1383.9,218.8C1385.7,218.8 1387.5,218.8 1389.3,218.7C1392.9,218.5 1396.5,218.2 1399.9,217.7L1399.9,212.7C1396.4,213.2 1392.8,213.5 1389,213.7C1355.9,215.1 1324.1,202.7 1307.9,182.1C1288.3,157.2 1278.4,162 1258.5,171.7C1243.1,179.2 1219.7,190.7 1178.2,194.6C1172.6,195.1 1168.2,193.4 1164.8,189.2C1153.1,174.8 1153.9,133 1167.2,68.2C1172.5,42.4 1178.8,17.7 1183.6,-0.1L1178.4,-0.1C1164,53.2 1137.7,163.8 1161,192.4Z" style="fill-opacity:0.2;fill-rule:nonzero;"/>
            <path d="M1198.5,97.4C1201.9,101.8 1206.9,103.7 1213.1,103.1C1221.8,102.3 1229.7,101 1237.3,99.8C1266.6,95.1 1287.8,91.7 1308.4,125.4C1320.4,145 1340.4,156.7 1361.7,156.7C1363.3,156.7 1364.8,156.6 1366.4,156.5C1379.4,155.4 1391.1,150 1400.1,141.2L1400.1,139.1C1391.2,148.3 1379.4,154 1366.3,155C1344,156.8 1322.3,145.2 1309.8,124.6C1288.7,90.1 1267.1,93.5 1237.2,98.3C1229.6,99.5 1221.7,100.8 1213.1,101.6C1207.4,102.1 1202.9,100.4 1199.8,96.4C1186.4,79.4 1199.9,25.7 1207.5,0L1205.9,0C1203.4,8.6 1200.2,20.2 1197.6,32.4C1190.4,65.7 1190.8,87.6 1198.5,97.4Z" style="fill-opacity:0.2;fill-rule:nonzero;"/>
            <path d="M1225.2,73C1228.2,77.3 1233.1,79.1 1239.7,78.4C1252.7,77 1263.5,74.2 1273.1,71.7C1286.5,68.2 1296.3,65.7 1302.9,69.7C1307.2,72.3 1310.2,77.7 1312.2,86.5C1314.8,97.8 1322.6,108.7 1334.1,117.1C1344.2,124.5 1355.7,128.9 1365,128.9L1365.8,128.9C1374.7,128.7 1380.4,124.2 1381.8,116.4C1385.6,94.7 1380.8,33.4 1371.7,-0.1L1370.2,-0.1C1379.3,32.9 1384.1,94.4 1380.3,116.1C1378.7,125.1 1371.5,127.2 1365.8,127.3C1348.8,127.8 1319.5,110.6 1313.8,86C1311.7,76.8 1308.5,71.1 1303.8,68.3C1296.6,63.9 1286.6,66.5 1272.8,70.1C1263.3,72.6 1252.5,75.4 1239.7,76.8C1233.6,77.5 1229.2,75.9 1226.6,72.1C1217.5,59.2 1229.1,24 1238.7,-0.1L1237,-0.1C1227.1,24.3 1215.8,59.6 1225.2,73Z" style="fill-opacity:0.2;fill-rule:nonzero;"/>
            <path d="M1340,80.2C1345.4,100.9 1350.4,111.4 1355.2,112.1L1355.7,112.1C1357.8,112.1 1359.8,110.3 1361.6,106.7C1366.6,96.4 1368.9,76.2 1367.4,55.2C1365.8,33 1360.5,16.1 1353.2,10.2C1348.9,6.6 1343.8,6.9 1338.6,10.9C1331.9,16 1328.7,24.4 1330.1,32.9C1332,43.2 1335.6,63.2 1340,80.2ZM1339.6,12L1339.1,11.4L1339.6,12C1344.3,8.4 1348.6,8.2 1352.3,11.3C1367.5,23.8 1370.6,84.9 1360.3,106C1358.7,109.3 1357.1,110.8 1355.5,110.6C1348.7,109.6 1339.8,80.5 1331.7,32.6C1330.4,24.6 1333.4,16.7 1339.6,12Z" style="fill-opacity:0.2;fill-rule:nonzero;"/>
            <path d="M1247.1,63.8C1247.6,63.8 1248.1,63.8 1248.6,63.7C1271.3,62 1298.1,57.3 1304.8,35.7C1307.8,26.1 1302.5,17 1291.1,12C1280.8,7.5 1269,7.8 1258.8,12.8C1248.3,18 1240.6,27.5 1237.8,38.9C1235.2,49.3 1235.6,56.5 1238.9,60.4C1240.6,62.7 1243.4,63.8 1247.1,63.8ZM1239.1,39.3C1241.8,28.3 1249.2,19.2 1259.4,14.2C1264.6,11.6 1270.2,10.4 1275.8,10.4C1280.8,10.4 1285.8,11.4 1290.4,13.5C1301.2,18.2 1306,26.4 1303.3,35.3C1296.9,56 1270.6,60.6 1248.5,62.3C1244.6,62.6 1241.7,61.7 1240,59.5C1236.9,56 1236.7,49.2 1239.1,39.3Z" style="fill-opacity:0.2;fill-rule:nonzero;"/>
            <path d="M1259.5,49.8L1260.2,49.8C1271.1,49 1284.1,46.7 1287.3,36.1C1288.8,31.3 1286.2,26.8 1280.5,24.3C1275.5,22.1 1269.7,22.2 1264.8,24.7C1259.7,27.2 1255.9,31.9 1254.5,37.4C1253.2,42.5 1253.4,46 1255.1,48C1256.2,49.3 1257.6,49.8 1259.5,49.8ZM1256,37.9C1257.3,32.8 1260.7,28.5 1265.5,26.2C1267.9,25 1270.5,24.4 1273.2,24.4C1275.5,24.4 1277.8,24.9 1280,25.8C1285,28 1287.2,31.7 1285.9,35.7C1283.6,43.2 1275.6,47.1 1260.1,48.3C1258.4,48.4 1257.1,48 1256.3,47.1C1255,45.6 1254.9,42.4 1256,37.9Z" style="fill-opacity:0.2;fill-rule:nonzero;"/>
            <path d="M1178.6,175.9C1180.6,177.1 1182.7,177.8 1185,177.8C1186.2,177.8 1187.4,177.6 1188.7,177.3C1196.8,175.1 1206.4,171.6 1216.5,167.9C1244.5,157.7 1276.3,146.1 1291.6,156.2C1297,159.8 1299.9,159.4 1301.2,158.4C1302.8,157.3 1303.3,155 1302.5,151.9C1301.4,147.4 1297.4,140.1 1289.3,133.2C1283.2,128 1272.6,121.3 1257.1,119C1239.7,116.4 1221,115.6 1201.4,116.8C1191.2,117.4 1181.6,122.4 1175.3,130.5C1169.2,138.4 1166.7,148.4 1168.5,158.1C1169.7,164.4 1173,172.3 1178.6,175.9ZM1176.6,131.4C1182.7,123.6 1191.8,118.8 1201.6,118.2C1221.1,117 1239.7,117.7 1257,120.3C1283,124.3 1298.7,141.6 1301.2,152.1C1301.8,154.5 1301.5,156.3 1300.5,157.1C1299.1,158.1 1296.2,157.3 1292.5,154.9C1276.6,144.4 1244.5,156.1 1216.1,166.5C1206,170.2 1196.5,173.6 1188.4,175.8C1185.2,176.7 1182.2,176.3 1179.5,174.6C1174.3,171.3 1171.2,163.8 1170.1,157.9C1168.3,148.6 1170.7,138.9 1176.6,131.4Z" style="fill-opacity:0.2;fill-rule:nonzero;"/>
            <path d="M1197.5,159.9C1201.7,159.9 1207,158.4 1213.4,156.5C1221.1,154.3 1230.8,151.5 1242.6,150.2C1272.5,146.8 1282.6,144.5 1282.8,141.1C1282.9,139.3 1280.8,137.1 1264.7,133.9C1236.1,128.3 1225.1,128.9 1221.7,129.4L1221.4,129.5C1220.6,129.6 1219.9,129.7 1219.1,129.8C1213,130.6 1192.8,133.8 1187.4,142.7C1185.8,145.3 1185.6,148.2 1186.7,151.3C1188.9,157.8 1192.4,159.9 1197.5,159.9ZM1188.5,143.6C1193.6,135.2 1213.2,132.1 1219.1,131.4C1219.9,131.3 1220.7,131.2 1221.5,131L1221.8,130.9C1224.4,130.5 1235.1,129.6 1264.3,135.4C1280.5,138.6 1281.2,140.6 1281.2,141C1281.1,144.3 1251.9,147.6 1242.4,148.7C1230.4,150 1220.7,152.8 1213,155.1C1198.9,159.2 1191.8,161.2 1188,151C1187,148.3 1187.1,145.9 1188.5,143.6Z" style="fill-opacity:0.2;fill-rule:nonzero;"/>
            <path d="M1338,167.7C1332,164.8 1328.1,164 1326.3,165.4C1325.7,165.9 1325,166.8 1325.3,168.7C1326.4,175.3 1338.5,187.8 1348.8,191.1C1359.9,194.6 1378.6,198.1 1395,198.1C1396.7,198.1 1398.4,198.1 1400,198L1400,196.5C1382.8,197.4 1361.4,193.5 1349.2,189.6C1338.9,186.3 1327.6,173.9 1326.7,168.4C1326.5,167.5 1326.7,166.9 1327.1,166.6C1327.7,166.1 1329.9,165.5 1337.3,169.1C1347.7,174.2 1363.7,173.7 1384.8,167.6C1390.4,166 1395.6,164.2 1400,162.6L1400,161C1383.4,167.1 1354.5,175.7 1338,167.7Z" style="fill-opacity:0.2;fill-rule:nonzero;"/>
            <path d="M1356,180.7C1355.8,181 1355.7,181.6 1356.2,182.3C1357.9,184.7 1367.9,187.2 1381.4,187.2C1386,187.2 1391,186.9 1396.2,186.3L1396,184.8C1372.6,187.7 1357.8,183.1 1357.4,181.5C1357.4,181.5 1358.2,180.3 1365.1,180.3C1377.2,180.3 1390.9,177.2 1400.1,174.6L1400.1,173C1391,175.6 1377.2,178.8 1365.1,178.8C1357,178.8 1356.3,180.2 1356,180.7Z" style="fill-opacity:0.2;fill-rule:nonzero;"/>
            <path d="M1134.6,228.7C1143.8,233.8 1167.8,225.7 1195.7,216.4C1228,205.6 1264.6,193.3 1277.5,203.6C1296.2,218.4 1350.3,257.6 1398.1,257.6L1400,257.6L1400,256.1C1352.3,257.2 1297.3,217.3 1278.5,202.4C1264.9,191.6 1229.5,203.5 1195.3,215C1169,223.8 1144.1,232.1 1135.4,227.4C1128.3,223.5 1123.2,198.5 1138.7,101.7C1145.3,60.9 1153.4,20.7 1157.8,-0L1156.3,-0C1145.4,51 1112.4,216.4 1134.6,228.7Z" style="fill-opacity:0.2;fill-rule:nonzero;"/>
            <path d="M655.7,77.7C662.5,80.5 668.5,82.8 673.7,84.9C709.1,98.6 709.8,98.9 707.2,155C706.5,171.1 703.1,191.7 699.4,213.4C691.1,263.8 681.6,320.9 701.9,344.5C708.5,352.1 717.9,355.9 729.9,355.7C752.9,355.4 771,352.7 785.5,350.5C803,347.9 814.6,346.2 820.5,351.3C824.4,354.7 826.2,361 826.2,371.9C826.2,383 830.7,391.5 838.7,396C842.3,398 846.5,399 850.7,399C856.3,399 862.2,397.3 867.6,393.9C889.6,380.1 890.3,350.1 889.6,337.8C887.2,295 882,288.9 870.8,275.5C863.6,266.9 853.8,255.2 840.5,228.5C832.2,211.8 825.1,200.1 819.5,190.7C802.3,162.1 800.1,158.4 822.5,114.2C848.5,63.1 846.8,58 839.4,36.5C838.2,33.1 836.9,29.2 835.5,24.7C833.5,17.6 833.6,9 835,0L833.4,0C832,9.1 832,17.8 834.2,25.2C835.6,29.8 836.9,33.7 838.1,37.1C845.5,58.6 847,63.1 821.3,113.7C798.5,158.6 801.1,163 818.3,191.7C823.9,201.1 831,212.8 839.3,229.4C852.7,256.2 862.6,268 869.8,276.7C880.8,289.9 885.8,295.9 888.2,338.2C888.9,350.2 888.2,379.5 866.9,392.9C857.9,398.5 847.4,399.3 839.5,394.9C831.9,390.7 827.7,382.6 827.7,372.1C827.7,360.7 825.8,354 821.5,350.3C815,344.7 803.2,346.5 785.3,349.2C770.9,351.4 752.9,354.1 729.9,354.4C718.2,354.6 709.4,351.1 703.1,343.7C683.2,320.6 692.6,263.8 700.9,213.8C704.5,192 707.9,171.4 708.7,155.2C710,127.5 710.4,112.5 705.9,103.3C701.4,94.1 692.3,90.6 674.3,83.6C669.1,81.6 663.1,79.3 656.3,76.4C634.7,67.4 624.4,47.7 625.9,17.9C626.2,11.6 627,5.5 628,0L626.5,0C625.5,5.5 624.7,11.5 624.4,17.7C622.9,47.8 633.7,68.6 655.7,77.7Z" style="fill-opacity:0.2;fill-rule:nonzero;"/>
            <path d="M652.3,39.5C655.8,47.3 662.4,52.5 671.8,54.8C682.3,57.4 691.7,58.6 700,59.7C714.6,61.7 725.2,63.1 730.5,70.3C735.1,76.6 735.6,87.3 732.3,104.9C731.4,109.7 730.3,115.4 728.9,122C717.4,179.9 695.9,287.7 721.3,315.4C725.9,320.4 731.9,322.6 739.1,321.8C748.7,320.8 757.7,319.6 766.4,318.5C797,314.6 821.2,311.5 830.2,319.1C832.8,321.2 834.1,324.2 834.2,328.1C834.9,344.3 843.9,361.3 852.3,362.5C852.6,362.5 852.9,362.6 853.2,362.6C855.9,362.6 859.4,360.8 861.7,353.4C865.3,342.1 852.5,322 836.3,296.5C820.1,271 801.7,242 794.7,213.9C780.7,158 776.7,131.3 793.7,91.4C801.2,73.6 796.1,53.5 791.2,34C788.2,22.3 785.3,10.9 785,0.2L783.6,0.2C783.9,11.3 786.8,23 789.8,34.4C794.7,53.7 799.7,73.6 792.4,90.9C775.3,131.2 779.3,158.1 793.4,214.4C800.5,242.7 818.9,271.8 835.2,297.4C850.5,321.6 863.8,342.4 860.4,353C859.1,357 856.7,361.7 852.6,361.1C845.6,360.2 836.5,344.8 835.8,328.2C835.6,323.9 834.1,320.6 831.2,318.1C821.7,310.1 798.4,313 766.2,317.2C757.5,318.3 748.5,319.5 738.9,320.5C732.2,321.2 726.6,319.2 722.3,314.6C697.5,287.5 719.7,176.1 730.3,122.5C731.6,115.9 732.8,110.2 733.7,105.3C737.1,87.3 736.5,76.2 731.7,69.6C726.1,61.8 715.2,60.4 700.2,58.3C692,57.2 682.6,56 672.2,53.4C663.2,51.2 657,46.4 653.7,39C648.8,28.1 650.8,13.2 654.5,0.1L652.9,0.1C649.2,13.1 647.2,28.2 652.3,39.5Z" style="fill-opacity:0.2;fill-rule:nonzero;"/>
            <path d="M682.3,24.4C686.4,31.7 693,36.5 701.9,38.7C739.5,47.8 750.3,51.7 750.3,78C750.3,93.9 755.9,108.7 762.1,109L762.3,109C765.6,109 769.9,104.9 771.8,86.1C774,63.8 770.6,27.6 767.2,0L765.7,0C769.1,27.5 772.5,63.7 770.3,85.9C768.3,106.2 763.6,107.5 762.2,107.5C757.5,107.3 751.8,94.1 751.8,78C751.8,50.6 739.9,46.4 702.2,37.3C693.7,35.2 687.5,30.7 683.6,23.7C679.6,16.5 678.7,7.6 678.9,-0L677.4,-0C677.1,8.1 678.1,17 682.3,24.4Z" style="fill-opacity:0.2;fill-rule:nonzero;"/>
            <path d="M730.1,23C740.5,26.6 744.7,34.5 747.3,39.2C748.7,41.7 749.5,43.3 750.8,43.3L750.9,43.3C752.1,43.3 752.9,41.9 753.8,39.9C756.1,34.5 753.4,16.8 749.9,-0.1L748.4,-0.1C751.9,16.6 754.7,34.2 752.5,39.3C751.5,41.7 751,41.8 751,41.8C750.6,41.8 749.6,39.9 748.8,38.5C746.2,33.6 741.7,25.3 730.8,21.6C720.3,18.1 716.1,8.2 714.3,0L712.8,0C714.6,8.6 719.1,19.2 730.1,23Z" style="fill-opacity:0.2;fill-rule:nonzero;"/>
            <path d="M754.8,288.7C762.6,291.1 769.6,293.7 775.9,295.9C786.3,299.7 794.3,302.6 799.5,302.6C801.8,302.6 803.5,302 804.8,300.8C808.5,297 806.4,287.1 797.8,266.7C791,250.7 783.7,231.5 776.5,213C758.2,165.3 749.7,144.5 745.4,145.1C743.9,145.3 743.6,147.4 743.4,148.9C743,150.4 735.6,181.4 733.1,213.6C729.7,257.9 737,283.2 754.8,288.7ZM744.7,149.2L744.7,149.1C744.9,146.8 745.4,146.6 745.4,146.6C746,146.6 748.4,148.2 756.2,166.3C761.5,178.8 768,195.7 774.9,213.6C782,232.2 789.4,251.4 796.2,267.4C804.3,286.6 806.6,296.6 803.5,299.9C800.2,303.4 790.2,299.7 776.3,294.7C770,292.4 762.9,289.8 755.1,287.4C714.4,274.6 744.4,150.4 744.7,149.2Z" style="fill-opacity:0.2;fill-rule:nonzero;"/>
            <path d="M755.6,262.6C757.1,263.5 758.4,264 759.7,264C760.7,264 761.7,263.7 762.5,263C769.6,257 764.1,223.9 758.3,209.5C756.3,204.5 754.4,202.1 752.5,202.2C751.1,202.3 750.1,203.8 749.3,206.7C749.1,207.4 745.5,217.7 744.4,229.5C742.9,245.7 746.8,257.2 755.6,262.6ZM750.7,207.3C751.5,204.1 752.3,203.8 752.6,203.8C753.4,203.8 754.9,205.5 756.8,210.1C759.7,217.3 762.5,229.1 763.7,239.5C765.1,251.4 764.3,259.5 761.5,261.9C760.3,262.9 758.6,262.8 756.4,261.4C736.2,248.8 750.6,207.7 750.7,207.3Z" style="fill-opacity:0.2;fill-rule:nonzero;"/>
            <path d="M75.1,800.5C99.5,815.2 124.4,822.7 149,822.7L149.8,822.7C245.8,822.7 287.9,786.7 308.2,769.5C315.7,763.1 320.7,758.8 324.2,759.8C326.8,760.6 329,764.4 331.3,772.2C336.5,789.6 355.8,806.1 380.1,806.1C382.1,806.1 384.1,806 386.1,805.8C393.5,805 404.8,802.5 416.8,799.8C438.1,795.1 467.4,788.6 470.3,794C470.9,795.2 470.6,797.7 465.1,803.1C450.3,817.9 422.9,820.7 396.4,823.5C363.4,827 332.2,830.2 323.3,854.7C319.3,865.6 316,880.4 312.5,896C304.4,932.2 294.9,975 271.6,999.9L273.7,999.9C296.5,974.5 306,932.2 314,896.3C317.5,880.7 320.8,866 324.7,855.2C333.3,831.7 364,828.4 396.6,825C423.4,822.2 451.1,819.3 466.2,804.1C471.1,799.1 472.9,795.6 471.6,793.2C468.3,787.2 446.7,791.5 416.4,798.2C404.5,800.8 393.2,803.3 385.9,804.1C359.6,807 338.2,789.9 332.7,771.6C330.1,763 327.8,759.1 324.6,758.2C320.4,757 315.4,761.2 307.2,768.2C287.1,785.4 245.3,821.1 149.8,821.1L149,821.1C124.6,821 100,813.6 75.8,799.1C56.4,787.4 37.3,771.2 18.9,750.8C11.9,743.1 5.6,735.3 -0.1,727.9L-0.1,730.4C5.3,737.4 11.2,744.6 17.7,751.8C36.3,772.4 55.5,788.8 75.1,800.5Z" style="fill-opacity:0.2;fill-rule:nonzero;"/>
            <path d="M280.1,927.3C293,882.4 292,837.6 283,823.9C279.9,819.1 276,817.1 271.5,817.9C253.4,821 227.7,870.6 213,930.8C208,951 198.9,978.9 183.5,996.9C182.5,998 181.6,999 180.7,1000L182.8,1000C192.8,989.3 205.1,969.1 214.4,931.2C228.8,872.5 254.5,822.4 271.7,819.4C275.6,818.7 278.9,820.5 281.7,824.7C286.1,831.4 288.5,846 288.2,864.6C287.8,884.5 284.5,906.6 278.7,926.9C272.9,947 260.4,979.9 236.5,1000L238.8,1000C256.6,984.4 270.9,959.3 280.1,927.3Z" style="fill-opacity:0.2;fill-rule:nonzero;"/>
            <path d="M260.4,877.5C259.9,875.2 258.9,874 257.6,873.9C255.7,873.8 249.9,873.5 224.6,941.4C216,964.5 208,987.8 203.9,1000.1L205.5,1000.1C209.7,987.7 217.6,964.7 226,942C248.3,882.1 255.4,875.5 257.5,875.5C258.3,875.5 258.7,877 258.9,877.9C264.2,901.2 237.9,976.3 217.7,1000.1L219.6,1000.1C228.1,989.6 238.1,969.9 246.7,946.5C255.5,922.8 263.7,892.2 260.4,877.5Z" style="fill-opacity:0.2;fill-rule:nonzero;"/>
            <path d="M185.8,858.1C200.7,858.6 205.7,858.8 210.3,851.7C212.8,847.8 213.1,844.1 211.2,840.9C204.7,830.1 173.3,826.8 122.9,831.5C82.9,835.3 47.9,814.3 25.6,796.1C15.2,787.7 6.5,779 0,771.8L0,774C6.4,781 14.8,789.2 24.6,797.3C47.1,815.7 82.5,836.9 123.1,833C146.3,830.8 201.2,827.3 209.9,841.7C211.5,844.4 211.2,847.5 209,850.9C204.9,857.2 200.5,857.1 185.8,856.6C161.9,855.8 113.1,854.2 -0.1,879.1L-0.1,880.6C113.2,855.7 162,857.3 185.8,858.1Z" style="fill-opacity:0.2;fill-rule:nonzero;"/>
            <path d="M179.6,844C179.5,842.9 179.4,840.6 141.5,839.1C121.4,838.3 97.7,838.1 83.7,838.6L81.7,838.6C53.8,838.6 19.1,819 -0.1,806.6L-0.1,808.4C19.8,821.2 55.5,841.1 83.7,840.1C122.3,838.8 173.2,841.7 177.8,844.1C176,845.2 165.1,847.6 109.9,851C73.4,853.2 25.2,856.3 -0.1,858L-0.1,859.5C25.1,857.9 73.4,854.7 109.9,852.5C179.8,848.2 179.6,845.5 179.6,844Z" style="fill-opacity:0.2;fill-rule:nonzero;"/>
            <path d="M161,895.3C165.7,908 156.3,936.1 136.4,968.6C129.4,980.1 121.9,990.7 114.4,1000.1L116.2,1000.1C144.2,964.9 169.9,914.9 162.5,894.8C153.6,871.1 44,901 0,914.1L0,915.7C16.4,910.9 42.1,903.6 68.2,897.6C139.5,881.4 158,887.4 161,895.3Z" style="fill-opacity:0.2;fill-rule:nonzero;"/>
            <path d="M120,914C121.5,915 122.3,916.4 122.3,918.3C122.3,936.3 88.4,976.6 67.2,1000L69.2,1000C74.8,993.8 81.2,986.5 87.6,978.8C111.6,949.9 123.8,929.6 123.8,918.3C123.8,915.9 122.8,914.1 120.9,912.8C105.9,902.7 33.4,928.9 0.1,941.7L0.1,943.3C32.8,930.7 105.6,904.4 120,914Z" style="fill-opacity:0.2;fill-rule:nonzero;"/>
            <path d="M61.6,947.1C62.3,947.4 62.7,947.9 62.9,948.6C63.8,952.2 60.3,961.3 38.7,983.9C33,989.9 27.1,995.6 22.4,1000.1L24.6,1000.1C40.6,984.8 66.8,958 64.4,948.3C64.1,947.2 63.4,946.3 62.2,945.8C53.9,942.3 21.4,958.3 0,969.7L0,971.4C5.2,968.6 11.1,965.5 17.2,962.5C47.8,947.2 58.3,945.6 61.6,947.1Z" style="fill-opacity:0.2;fill-rule:nonzero;"/>
            <path d="M64.2,221C81.8,198.7 64.9,159.6 53.7,133.7C49.7,124.5 49.1,116.6 51.9,109.7C57.8,95.1 78.6,86.4 100.6,77.1C113,71.9 125.9,66.5 137.4,59.6C159.2,46.6 177.7,24.1 189.4,7.5C191.2,4.9 192.9,2.4 194.5,-0.1L192.7,-0.1C191.3,2.1 189.7,4.3 188.1,6.6C176.5,23.1 158.2,45.4 136.6,58.3C125.1,65.1 112.3,70.5 100,75.7C77.7,85.1 56.7,93.9 50.5,109.1C47.6,116.4 48.1,124.6 52.3,134.3C63.3,159.9 80,198.5 63,220.1C52.9,232.9 31.7,238.2 0,235.8L0,237.3C4.9,237.7 9.5,237.8 13.9,237.8C38.5,237.9 55.4,232.2 64.2,221Z" style="fill-opacity:0.2;fill-rule:nonzero;"/>
            <path d="M42.1,217.3C46.9,214.1 48.3,207.5 46.4,197.5C44.2,186.2 39.9,174 35.8,162.1C26.9,136.8 17.8,110.6 27.6,91.1C33.3,79.9 44.7,71.8 62.5,66.3C119.6,48.8 136.9,28.3 136.2,-0.1L134.6,-0.1C135.2,27.6 118.1,47.7 62,64.8C43.8,70.4 32.1,78.7 26.2,90.3C16.1,110.3 25.3,136.8 34.3,162.4C38.4,174.2 42.7,186.4 44.9,197.6C46.7,206.9 45.5,213.1 41.3,215.9C32.8,221.5 14,213.4 0,205.9L0,207.6C10.7,213.3 24.1,219.2 33.9,219.2C37.1,219.4 39.9,218.8 42.1,217.3Z" style="fill-opacity:0.2;fill-rule:nonzero;"/>
            <path d="M25,51.6C57.5,51.6 77.5,45.6 84.3,33.7C89.2,25.2 87.3,14 78.6,0L76.8,0C85.6,13.8 87.7,24.8 83,32.9C72.3,51.5 28.2,51.3 0,49L0,50.5C7.1,51.1 15.1,51.5 23.4,51.6L25,51.6Z" style="fill-opacity:0.2;fill-rule:nonzero;"/>
            <path d="M13.4,194.5C14.7,194.5 15.7,194.1 16.6,193.3C24.2,186.4 10.9,147.3 0,119.4L0,123.6C11,152.4 21.9,186.4 15.6,192.2C14.2,193.5 11.8,193.2 8.4,191.3C5.5,189.7 2.7,188.1 -0,186.7L-0,188.4C2.4,189.7 5,191.1 7.6,192.6C9.9,193.9 11.8,194.5 13.4,194.5Z" style="fill-opacity:0.2;fill-rule:nonzero;"/>
            <path d="M37.3,22.1C41.7,17.1 43.3,9.5 41.8,0L40.3,0C41.4,7 41.2,15.4 36.2,21.2C30,28.2 17.8,29.8 0,26L0,27.5C6.2,28.8 11.8,29.5 16.7,29.5C26.1,29.5 33,27 37.3,22.1Z" style="fill-opacity:0.2;fill-rule:nonzero;"/>
            <path d="M1340.5,471.5C1338.1,475.2 1338,479.5 1340.3,484.3C1344.7,493.4 1349.7,501.9 1354.5,510.1C1366.2,529.9 1376.3,547.1 1374.2,565.9C1372.5,581.6 1375.1,593.1 1382.2,600.9C1386.5,605.6 1392.4,609 1399.9,611.1L1399.9,609.6C1392.8,607.5 1387.3,604.3 1383.3,599.9C1376.5,592.4 1374,581.4 1375.6,566.1C1377.7,546.8 1367.5,529.4 1355.7,509.4C1350.9,501.2 1345.9,492.8 1341.5,483.7C1339.4,479.3 1339.4,475.6 1341.5,472.4C1348.9,461.3 1379.5,458.9 1399.8,458.6L1399.8,457C1379.5,457.3 1348.3,459.7 1340.5,471.5Z" style="fill-opacity:0.2;fill-rule:nonzero;"/>
            <path d="M1370.5,485.4C1369.4,486.4 1368.9,487.6 1368.9,489C1369.2,496.2 1384.7,507.6 1398.4,517.8C1398.9,518.2 1399.4,518.6 1399.9,518.9L1399.9,517C1399.7,516.8 1399.5,516.7 1399.3,516.5C1387.2,507.6 1370.7,495.3 1370.4,488.9C1370.4,487.9 1370.7,487.2 1371.4,486.5C1373.5,484.6 1380.3,482.4 1399.9,482.6L1399.9,481.1C1387.7,481 1374.6,481.9 1370.5,485.4Z" style="fill-opacity:0.2;fill-rule:nonzero;"/>
            <path d="M296.9,10.4C300.4,20 310.4,26.9 326.8,30.7C351.7,36.6 353.5,53.3 355,68.1C355.9,76.9 356.7,84.4 362.2,88.4C364.7,90.2 368,91.1 372.3,91.1C375.4,91.1 379,90.6 383.2,89.7C402.5,85.4 424.1,73.5 445,62C445.4,61.8 445.9,61.5 446.3,61.3C457.3,53.5 467.8,47.2 478.8,44.6C496.2,37 510.7,34.4 518.4,44.4C528.4,57.2 543.5,68.1 555,68.1C557.3,68.1 559.5,67.7 561.4,66.7C568.8,63.2 575.7,51.1 566.7,13.8C565.5,9 564.4,4.4 563.4,-0L561.9,-0C563,4.5 564.1,9.2 565.3,14.2C574,50.6 567.7,62.1 560.8,65.4C549.9,70.6 531,58.1 519.6,43.5C506.4,26.6 476.2,43.1 444.2,60.7C423.4,72.1 401.9,83.9 382.8,88.2C373.4,90.3 366.9,90 363,87.1C358,83.5 357.3,76.3 356.4,67.9C354.9,53.4 353.1,35.3 327.1,29.2C311.3,25.5 301.5,19 298.3,9.8C297.1,6.5 296.9,3.1 297.2,-0.1L295.7,-0.1C295.4,3.7 295.8,7.2 296.9,10.4Z" style="fill-opacity:0.2;fill-rule:nonzero;"/>
            <path d="M478.8,44.7C467.7,47.3 457.3,53.6 446.3,61.4C457.6,55.1 468.7,49.1 478.8,44.7Z" style="fill-opacity:0.2;fill-rule:nonzero;"/>
            <path d="M340.9,6.5C341.5,10.5 345.1,13.6 351.5,15.7C354.8,16.8 357.9,17.7 360.8,18.6C373,22.4 381.1,24.8 383.6,29.9C384.9,32.5 384.7,35.7 383,40.1C381.8,43.2 382.4,45.8 384.7,47.7C387.3,49.9 392.1,51 398.4,51C414.5,51 440.3,43.8 463.4,29.7C489.1,14 502,6.8 509.9,8.9C513.3,9.8 516.1,12.5 519,18C525.3,29.6 536,41 542.5,39.4C545.9,38.5 547.7,34.3 547.7,27C547.7,18.4 546,8.8 543.8,0L542.3,0C544.5,8.8 546.2,18.5 546.2,27C546.2,33.5 544.8,37.3 542.1,38C536.6,39.4 526.1,28.2 520.2,17.3C517,11.5 514,8.5 510.2,7.5C501.8,5.2 488.6,12.5 462.5,28.4C429.5,48.6 393.6,53.2 385.5,46.6C383.7,45.1 383.3,43.2 384.2,40.7C386,35.9 386.2,32.3 384.7,29.3C381.9,23.7 373.6,21.1 361,17.2C358.1,16.3 355,15.4 351.7,14.3C345.9,12.4 342.7,9.7 342.1,6.3C341.8,4.3 342.4,2.1 343.5,-0L341.8,-0C341.1,2.1 340.5,4.4 340.9,6.5Z" style="fill-opacity:0.2;fill-rule:nonzero;"/>
            <path d="M406.7,28.8C407.5,29.9 408.7,30.5 410.6,30.5C411.9,30.5 413.4,30.2 415.2,29.7C431.5,24.8 456.2,9.7 471,0L468.3,0C453.5,9.6 430.3,23.7 414.8,28.3C412.3,29.1 409,29.6 408,28C405.4,24.1 413.9,10.6 421.6,0L419.7,0C412.3,10.2 403.6,24.1 406.7,28.8Z" style="fill-opacity:0.2;fill-rule:nonzero;"/>
            <path d="M1378,658.4C1373.2,659.7 1369.7,663.1 1367.6,668.7C1363.4,680.3 1369.9,701.3 1386.9,731.2C1391.3,738.9 1395.9,746.3 1400,752.6L1400,749.8C1384.3,725.3 1362.6,686.7 1369,669.2C1370.9,664.1 1374,660.9 1378.3,659.8C1384.6,658.1 1392.7,660.9 1399.9,664.6L1399.9,663C1391,658.5 1383.7,656.9 1378,658.4Z" style="fill-opacity:0.2;fill-rule:nonzero;"/>
            <path d="M1385.9,676.4C1380.3,680.6 1396.4,709.6 1399.7,715.4L1400,715.2L1400,712.9C1387,689.8 1385,679 1386.8,677.6C1388.9,676 1394.4,679.7 1400,684.6L1400,682.6C1394.6,678 1388.7,674.3 1385.9,676.4Z" style="fill-opacity:0.2;fill-rule:nonzero;"/>
            <path d="M577.4,32C579.2,65.1 586.4,86.1 598.6,94.6C602.4,97.2 606.4,99.8 610.6,102.5C638.7,120.7 673.6,143.3 663.3,183.7C656.8,209.3 648.2,253.2 645.5,293C642.1,343.4 648.9,372.5 665.7,379.6C676.5,384.2 691.2,387.5 706.8,391C746,399.8 790.4,409.8 790.9,443.6C791.1,460 797.2,471.9 809,479C817,483.8 826.6,485.6 835.8,485.6C847,485.6 857.6,482.9 864,479.6C874.4,474.2 893.5,447.3 909.5,415.7C936.2,362.7 939.9,326.9 939.7,310.3C939.3,273 919.6,247.1 902.2,224.3C889.2,207.3 878,192.6 878.3,177C878.7,155.4 885.9,143.3 892.9,131.6C897.6,123.7 902.5,115.4 905,104.5C907.4,93.9 902.9,77.4 898.1,59.8C891.7,36.1 885,11.7 894.6,0L892.7,0C883.7,12.5 890.3,36.7 896.7,60.2C901.4,77.6 905.9,94 903.6,104.2C901.2,114.9 896.6,122.7 891.7,130.9C884.6,142.8 877.3,155.1 876.9,177C876.6,193.1 888,208 901.1,225.3C918.3,247.9 937.9,273.6 938.2,310.4C938.4,326.9 934.7,362.4 908.1,415.1C892.5,446 873.3,473.2 863.3,478.4C851.9,484.3 827,488.2 809.7,477.8C798.4,471 792.6,459.6 792.3,443.7C791.8,408.7 746.8,398.6 707,389.6C691.5,386.1 676.8,382.8 666.2,378.3C628.5,362.4 653.1,229.5 664.6,184.2C675.2,142.7 639.8,119.8 611.3,101.3C607.1,98.5 603,96 599.3,93.4C578.3,78.8 577.7,26.1 578.8,0L577.3,0C576.9,8.6 576.7,20.1 577.4,32Z" style="fill-opacity:0.2;fill-rule:nonzero;"/>
            <path d="M971,94.7C951.8,138 942.4,168.3 951.6,195.2C955.3,206 961.8,227.7 964.5,252.4C967.4,278.9 964.8,300.8 957,317.3C941.7,349.6 919.8,409.6 935.1,429.2C938.5,433.6 943.7,435.8 950.3,435.8C952.6,435.8 955.1,435.5 957.8,435C975.6,431.5 990.2,426.5 1001.9,422.5C1023.8,415 1038.3,410.1 1051.8,421.5C1074.3,440.5 1114.5,437.4 1147.4,414.2L1147.5,414.1C1147.6,414 1159.5,402.2 1175.1,390.7C1195.7,375.6 1213.5,368 1226.5,368.8C1233.9,369.2 1239.9,372.3 1244.4,378C1258.8,396.3 1281.2,409.3 1309.1,415.7C1335.7,421.8 1366.9,421.5 1400,415L1400,413.5C1367,420 1335.9,420.3 1309.4,414.3C1281.8,408 1259.8,395.1 1245.6,377.2C1240.8,371.2 1234.5,367.9 1226.6,367.4C1194.7,365.5 1149,410.6 1146.5,413.1C1114.2,435.9 1074.8,439 1052.8,420.4C1038.6,408.4 1023.8,413.5 1001.4,421.1C989.7,425.1 975.1,430.1 957.5,433.6C947.7,435.5 940.5,433.8 936.3,428.3C921.5,409.3 943.2,350 958.4,318C966.4,301.2 968.9,279.1 966.1,252.3C963.4,227.5 956.8,205.6 953.1,194.8C944.1,168.3 953.3,138.3 972.4,95.3C982.1,73.5 984.1,45.3 984.1,25.6C984.1,15.6 983.6,6.7 983.1,-0L981.6,-0C982.1,6.7 982.7,15.6 982.7,25.6C982.6,45.2 980.6,73.1 971,94.7Z" style="fill-opacity:0.2;fill-rule:nonzero;"/>
            <path d="M1186.9,422C1193.6,423.4 1202.5,425.7 1212,428.1C1238.8,434.9 1261.3,440.2 1273.2,440.2C1277.8,440.2 1280.8,439.4 1281.9,437.6C1283.1,435.7 1282.1,433 1278.9,429.4C1256.9,404.4 1235.5,382.3 1215.3,386.2L1215.1,386.3C1213.5,387 1175.7,404.4 1176.9,415.4C1177.4,418.5 1180.6,420.7 1186.9,422ZM1215.8,387.7C1235.2,384 1256.2,405.8 1277.9,430.4C1280.5,433.3 1281.5,435.6 1280.7,436.8C1277,442.9 1239.7,433.5 1212.4,426.6C1202.9,424.2 1194,422 1187.2,420.5C1181.7,419.3 1178.8,417.5 1178.5,415.1C1177.6,407 1205,392.6 1215.8,387.7Z" style="fill-opacity:0.2;fill-rule:nonzero;"/>
            <path d="M1212.1,417.1C1214.8,417.7 1218.5,418.6 1222.4,419.6C1233.9,422.5 1242.6,424.6 1247.5,424.6C1249.6,424.6 1251,424.2 1251.5,423.3C1252.4,421.9 1250.8,420 1250.2,419.4C1242.9,411.1 1232.9,399.8 1223.7,401.6L1223.5,401.7C1220.8,403 1207.1,409.4 1207.6,414.1C1207.9,415.5 1209.3,416.5 1212.1,417.1ZM1224.1,403C1231.8,401.6 1240.3,410.4 1249.1,420.4C1250.1,421.6 1250.3,422.3 1250.2,422.5C1248.9,424.7 1231.8,420.4 1222.7,418.1C1218.8,417.1 1215.1,416.2 1212.4,415.6C1210.4,415.2 1209.3,414.5 1209.2,413.8C1208.9,411.2 1217.7,406 1224.1,403Z" style="fill-opacity:0.2;fill-rule:nonzero;"/>
            <path d="M896.2,536.7C899.9,560.5 903.1,581 909.9,582.4C910.2,582.5 910.4,582.5 910.7,582.5C912.9,582.5 915.2,580.6 917.7,576.7C930.6,556.6 957.1,490.7 940.3,461.8C934.6,452 924.6,447.5 910.4,448.2L910.2,448.2L910.1,448.3C909.8,448.5 878.3,464.3 888.4,496.5C891.6,507.1 893.9,522.1 896.2,536.7ZM910.5,449.7C924,449 933.5,453.3 938.9,462.5C954.6,489.5 930.2,554.2 916.4,575.8C914,579.5 911.9,581.2 910.2,580.8C904.4,579.6 901,557.6 897.7,536.3C895.4,521.7 893.1,506.5 889.7,495.9C880.4,466.2 908.4,450.9 910.5,449.7Z" style="fill-opacity:0.2;fill-rule:nonzero;"/>
            <path d="M912.8,542.7C912.9,542.7 913.1,542.8 913.2,542.8C914.5,542.8 915.3,541.3 915.6,540.7C918.9,534.9 922.4,520.9 923.8,507.4C924.8,497.8 925.6,480.9 919.5,475.1C916.5,472.2 912.3,472.4 907.2,475.7L906.9,475.9L906.9,476.3C906.9,476.5 906.8,492.5 907.4,508.6C908.6,541.6 911.5,542.4 912.8,542.7ZM908.4,476.8C912.8,474.1 916.2,474 918.6,476.2C922.7,480.2 924.1,491.5 922.4,507.3C921,520.4 917.5,534.4 914.3,540C913.6,541.1 913.2,541.3 913.1,541.3C909.9,540.4 908.2,507.8 908.4,476.8Z" style="fill-opacity:0.2;fill-rule:nonzero;"/>
            <path d="M969,460.4C973.1,460.7 980.2,460.9 988.6,460.9C997,460.9 1006.7,460.7 1016,460.2C1050.9,458.3 1051.9,453.6 1052.2,452C1052.8,449.2 1048.9,446.3 1039.9,443C1038.4,442.3 1010.6,429.7 997.9,438.4C993.5,441.4 985.7,444.8 978.8,447.8C967.4,452.7 961.4,455.4 961.9,458C962.2,459.4 964.3,460.1 969,460.4ZM979.4,449.1C986.7,445.9 994.2,442.7 998.8,439.6C1001.8,437.6 1005.7,436.8 1009.9,436.8C1023,436.8 1039.2,444.2 1039.4,444.3L1039.5,444.3C1050.3,448.3 1051.1,450.8 1050.9,451.6C1049.3,458.9 992,460.2 969.2,458.8C963.7,458.5 963.5,457.6 963.5,457.6C963.1,456.2 973.3,451.8 979.4,449.1Z" style="fill-opacity:0.2;fill-rule:nonzero;"/>
            <path d="M633.3,540.7C667.3,523.7 697.6,512.7 722,503.8C736.3,498.6 748.6,494.1 758.3,489.7C769.3,484.6 775.8,474.9 776.1,463C776.5,448.1 767.2,433.3 752.3,425.3C740.2,418.8 725.5,412.6 712.9,408.7C702.9,405.6 690.1,402.6 686.1,406C685.2,406.8 684.2,408.4 685.2,411.2C685.4,411.9 689.1,426.6 687,442.6C684.2,464.5 672.7,478.5 652.7,484.2C644.6,486.5 635.7,488.9 626.2,491.4C585.6,502.3 539.7,514.6 537,527.1C536.5,529.7 537.6,532.1 540.5,534.4L542.4,535.9C554.7,545.9 566,555.1 584.5,555.1C596.8,555.3 612.3,551.2 633.3,540.7ZM543.3,534.9L541.4,533.4C539,531.5 538,529.5 538.5,527.6C541,515.9 588.5,503.2 626.6,493C636.1,490.5 645,488.1 653.1,485.7C678.8,478.4 686.5,458.3 688.5,442.8C690.6,426.1 686.6,410.9 686.6,410.8L686.6,410.7C685.7,408.3 686.7,407.4 687,407.1C688,406.2 689.8,405.9 692.2,405.9C704.1,405.9 731.3,415.8 751.6,426.6C766,434.3 775,448.6 774.6,462.9C774.3,474.2 768.1,483.4 757.6,488.2C748,492.6 735.7,497.1 721.5,502.3C697.1,511.2 666.7,522.2 632.6,539.2C580.7,565.3 563.4,551.2 543.3,534.9Z" style="fill-opacity:0.2;fill-rule:nonzero;"/>
            <path d="M687.9,504.4C691.5,504.4 696.2,503.5 701.9,501.7C726.1,494.2 745.8,474.9 747.6,456.8C748.6,447 744,438.8 734.7,433.7C714.4,422.6 707.3,419.9 704.1,422.3C702.3,423.7 702,426.5 703.2,432.2L703.3,432.4C703.4,432.6 712.6,453.1 698.5,466.5C688.4,476.1 675.6,493.7 679.9,501.1C681.2,503.3 683.9,504.4 687.9,504.4ZM685.2,485.1C688.8,479.3 694.2,472.6 699.5,467.5C713.9,453.7 705.3,433.2 704.7,431.7C703.7,427 703.8,424.4 705,423.4C707.8,421.3 717.7,426 734,434.9C742.9,439.7 747,447.2 746.1,456.6C744.3,474.1 725.2,492.9 701.5,500.2C690.3,503.7 683.3,503.7 681.2,500.2C679.5,497.4 681,492.1 685.2,485.1Z" style="fill-opacity:0.2;fill-rule:nonzero;"/>
            <path d="M656.2,511.9C656.6,508.7 654.2,505.7 649.4,503L649.2,502.9L649,502.9C645.7,503.3 569.3,513 563.7,526.6C563,528.2 563.3,529.9 564.5,531.5C567.3,535.1 574.7,536.6 584.2,536.6C596.4,536.6 612,534.1 625.8,530.2C634.5,527.6 655.2,520.8 656.2,511.9ZM625.3,528.7C595.4,537.2 570.3,536.5 565.6,530.5C564.7,529.4 564.5,528.3 565,527.1C566.5,523.5 575.3,517.7 608.9,510.9C627.9,507.1 646.6,504.6 648.9,504.3C653.1,506.6 655,509 654.8,511.6C654.1,517.2 642.8,523.7 625.3,528.7Z" style="fill-opacity:0.2;fill-rule:nonzero;"/>
            <path d="M371.8,738.9C378.5,744.7 386.6,747.7 396,747.7C398.5,747.7 401.1,747.5 403.7,747.1C417.5,745 430.5,742.6 441.9,740.6C473,734.9 495.5,730.9 499.6,738.7C500.3,740 501.8,741.5 504.9,740.8C517.2,738 542.5,704.6 543,690.4C543.1,688.8 542.6,687.5 541.5,686.6C537.7,683.5 526.8,686.1 511.9,689.7C488.3,695.4 456.1,703.2 427.8,695C417.2,691.9 407.7,689.1 399.3,686.6C370.6,678 356.1,673.6 352.4,676.9C351.6,677.6 351.3,678.6 351.5,679.8C351.6,681.6 351.5,721.1 371.8,738.9ZM353.5,677.9C354.1,677.4 355.1,677.2 356.6,677.2C363.2,677.2 378.2,681.7 399,688C407.4,690.5 416.9,693.4 427.5,696.4C456.1,704.7 488.6,696.8 512.3,691.1C526.3,687.7 537.4,685 540.6,687.7C541.3,688.3 541.6,689.1 541.6,690.3C541,704.8 515.2,736.9 504.6,739.3C502.3,739.8 501.4,738.8 501,738C496.3,729.2 474.6,733.1 441.7,739.1C430.3,741.2 417.4,743.5 403.6,745.6C391.3,747.5 380.9,744.9 372.9,737.8C352.7,720.1 353.2,680.1 353.2,679.7L353.2,679.5C352.9,678.5 353.2,678.1 353.5,677.9Z" style="fill-opacity:0.2;fill-rule:nonzero;"/>
            <path d="M379.9,725C384.3,729.6 390.8,732 399.1,732L400.8,732C412.1,731.6 430.9,730.4 447.4,728.7C477.1,725.6 477.2,723.2 477.3,722.1C477.4,720.7 475.8,719.6 467.8,718.3C457.5,716.7 443.9,714 430.7,711.3C392.8,703.8 374.8,700.6 372.9,704C372.5,704.7 372.7,705.5 373.5,706.5C373.4,708.5 373.2,718.1 379.9,725ZM377.7,704.1C380.3,704.1 384.7,704.5 392.3,705.6C402.9,707.2 416.9,710 430.4,712.7C443.6,715.3 457.3,718.1 467.6,719.7C474.4,720.8 475.6,721.7 475.8,721.9C473.6,725.3 429,729.4 400.7,730.4C392,730.7 385.4,728.5 380.9,723.9C374.1,716.8 374.9,706.3 374.9,706.2L374.9,705.9L374.7,705.7C374.1,705.1 374.1,704.8 374.1,704.7C374.3,704.6 374.9,704.1 377.7,704.1Z" style="fill-opacity:0.2;fill-rule:nonzero;"/>
            <path d="M13.3,402.9C18,390 19.7,385.2 75.2,365.7C95.1,358.7 105.8,351.1 108,342.4C110.7,331.9 101.1,321.4 91,310.3C82.2,300.6 73,290.5 71.7,280C71.1,275.3 68.9,271.9 65.1,270.1C51,263.3 18.5,278.3 0,288L0,289.7C18.2,280.1 51,264.8 64.5,271.4C67.9,273 69.8,275.9 70.3,280.2C71.7,291.2 81,301.4 90,311.4C99.8,322.2 109.1,332.4 106.7,342.1C104.6,350.3 94.2,357.6 74.9,364.4C18.7,384.1 16.9,389.1 12.1,402.5C10.6,406.7 8.7,411.9 4.5,418.7C3.2,420.9 1.7,423 0.1,425L0.1,427.4C2.2,424.8 4.1,422.1 5.7,419.4C9.9,412.5 11.8,407.2 13.3,402.9Z" style="fill-opacity:0.2;fill-rule:nonzero;"/>
            <path d="M58.5,331.8C59.4,328.1 57.4,324.9 55,321.2C52.7,317.6 50.1,313.5 49.1,307.6C48.7,305 47.3,303.2 45,302.1C36,298 14.3,307.6 0,315L0,316.7C14,309.4 35.8,299.5 44.3,303.4C46.1,304.2 47.2,305.7 47.5,307.8C48.6,314 51.4,318.4 53.6,322C55.9,325.6 57.7,328.4 56.9,331.5C55.9,335.5 50.7,340.1 39.8,346.4C25,355.1 10.8,363.6 -0.2,370.3L-0.2,372.1C10.8,365.4 25.3,356.6 40.5,347.8C52.1,341 57.4,336.3 58.5,331.8Z" style="fill-opacity:0.2;fill-rule:nonzero;"/>
        </g>
    </g>
</svg>
